<svg width="238" height="71" viewBox="0 0 238 71" fill="none" xmlns="http://www.w3.org/2000/svg">
<path d="M228.858 0H8.79532C3.9378 0 0 3.9378 0 8.79532V61.6224C0 66.48 3.9378 70.4178 8.79532 70.4178H228.858C233.715 70.4178 237.653 66.48 237.653 61.6224V8.79532C237.653 3.9378 233.715 0 228.858 0Z" fill="#6E6E6E"/>
<path d="M83.4795 18.0327C83.502 18.6827 83.391 19.3305 83.1536 19.936C82.9161 20.5416 82.5571 21.0921 82.0988 21.5536C81.5999 22.0751 80.9963 22.485 80.3275 22.7563C79.6588 23.0276 78.9401 23.1542 78.2189 23.1276C77.4905 23.1388 76.7673 23.0036 76.0922 22.73C75.4171 22.4564 74.8038 22.05 74.2887 21.5349C73.7736 21.0198 73.3672 20.4065 73.0936 19.7314C72.82 19.0562 72.6848 18.333 72.696 17.6047C72.6848 16.8763 72.82 16.1531 73.0936 15.478C73.3672 14.8028 73.7736 14.1895 74.2887 13.6744C74.8038 13.1593 75.4171 12.7529 76.0922 12.4793C76.7673 12.2057 77.4905 12.0705 78.2189 12.0817C78.9639 12.0813 79.7013 12.2316 80.3867 12.5235C81.0221 12.7811 81.5858 13.1885 82.0298 13.711L81.1047 14.6361C80.752 14.2196 80.3084 13.8897 79.8081 13.6718C79.3077 13.454 78.764 13.354 78.2189 13.3796C77.6679 13.3795 77.1224 13.4893 76.6144 13.7026C76.1063 13.916 75.646 14.2285 75.2602 14.622C74.8745 15.0154 74.5711 15.4819 74.3679 15.994C74.1647 16.5062 74.0657 17.0538 74.0767 17.6047C74.0657 18.1556 74.1647 18.7031 74.3679 19.2153C74.5711 19.7274 74.8745 20.1939 75.2602 20.5874C75.646 20.9808 76.1063 21.2934 76.6144 21.5067C77.1224 21.72 77.6679 21.8298 78.2189 21.8297C78.7707 21.8611 79.3229 21.7779 79.8409 21.5855C80.359 21.393 80.8315 21.0954 81.2289 20.7113C81.7731 20.1274 82.0913 19.3686 82.1264 18.5712H78.288V17.3009H83.3967C83.4465 17.5418 83.4742 17.7867 83.4795 18.0327Z" fill="#D2D3D4" stroke="#D2D3D4" stroke-width="0.345185" stroke-miterlimit="10"/>
<path d="M91.5839 13.628H86.7789V16.9694H91.1282V18.2396H86.7789V21.581H91.5839V22.8927H85.4258V12.3301H91.5839V13.628Z" fill="#D2D3D4" stroke="#D2D3D4" stroke-width="0.345185" stroke-miterlimit="10"/>
<path d="M97.3157 22.8927H95.935V13.628H93.0078V12.3301H100.271V13.628H97.3157V22.8927Z" fill="#D2D3D4" stroke="#D2D3D4" stroke-width="0.345185" stroke-miterlimit="10"/>
<path d="M105.516 22.8927V12.3301H106.896V22.8927H105.516Z" fill="#D2D3D4" stroke="#D2D3D4" stroke-width="0.345185" stroke-miterlimit="10"/>
<path d="M112.89 22.8927H111.509V13.628H108.582V12.3301H115.845V13.628H112.89V22.8927Z" fill="#D2D3D4" stroke="#D2D3D4" stroke-width="0.345185" stroke-miterlimit="10"/>
<path d="M129.581 21.5258C128.548 22.5419 127.157 23.1114 125.708 23.1114C124.259 23.1114 122.868 22.5419 121.835 21.5258C121.329 21.0084 120.931 20.3949 120.665 19.7215C120.4 19.048 120.272 18.3282 120.289 17.6045C120.272 16.8808 120.4 16.161 120.665 15.4876C120.931 14.8141 121.329 14.2006 121.835 13.6832C122.868 12.6671 124.259 12.0977 125.708 12.0977C127.157 12.0977 128.548 12.6671 129.581 13.6832C130.095 14.1972 130.5 14.8091 130.773 15.4827C131.046 16.1563 131.18 16.8779 131.169 17.6045C131.179 18.3311 131.044 19.0524 130.772 19.7258C130.499 20.3993 130.094 21.0114 129.581 21.5258ZM122.884 20.7112C123.26 21.0882 123.707 21.3873 124.198 21.5914C124.69 21.7954 125.217 21.9005 125.749 21.9005C126.282 21.9005 126.809 21.7954 127.3 21.5914C127.792 21.3873 128.239 21.0882 128.614 20.7112C129.005 20.3104 129.311 19.8346 129.512 19.3125C129.714 18.7905 129.808 18.2329 129.788 17.6736C129.808 17.1142 129.714 16.5567 129.512 16.0346C129.311 15.5125 129.005 15.0367 128.614 14.6359C128.239 14.2589 127.792 13.9598 127.3 13.7558C126.809 13.5517 126.282 13.4466 125.749 13.4466C125.217 13.4466 124.69 13.5517 124.198 13.7558C123.707 13.9598 123.26 14.2589 122.884 14.6359C122.494 15.0367 122.188 15.5125 121.987 16.0346C121.785 16.5567 121.691 17.1142 121.711 17.6736C121.691 18.2329 121.785 18.7905 121.987 19.3125C122.188 19.8346 122.494 20.3104 122.884 20.7112Z" fill="#D2D3D4" stroke="#D2D3D4" stroke-width="0.345185" stroke-miterlimit="10"/>
<path d="M133.047 22.8927V12.3301H134.69L139.826 20.6145V18.571V12.3301H141.207V22.8927H139.826L134.455 14.2769V16.3066V22.8927H133.047Z" fill="#D2D3D4" stroke="#D2D3D4" stroke-width="0.345185" stroke-miterlimit="10"/>
<path d="M119.945 38.2888C118.464 38.2943 117.017 38.7386 115.787 39.5658C114.558 40.3929 113.602 41.5657 113.038 42.9362C112.475 44.3066 112.331 45.8132 112.623 47.2658C112.915 48.7183 113.632 50.0516 114.681 51.0974C115.731 52.1432 117.067 52.8545 118.52 53.1415C119.974 53.4286 121.48 53.2785 122.848 52.7103C124.217 52.142 125.386 51.181 126.209 49.9487C127.031 48.7164 127.47 47.2679 127.47 45.7862C127.487 44.7947 127.304 43.8099 126.931 42.8908C126.559 41.9717 126.005 41.1372 125.302 40.4372C124.6 39.7372 123.763 39.1862 122.843 38.817C121.922 38.4479 120.937 38.2682 119.945 38.2888ZM119.945 50.3151C119.035 50.3788 118.127 50.1672 117.339 49.7078C116.552 49.2483 115.92 48.5623 115.528 47.7391C115.135 46.9158 114.999 45.9934 115.138 45.0919C115.277 44.1905 115.684 43.3517 116.306 42.6847C116.928 42.0178 117.737 41.5536 118.627 41.3526C119.516 41.1516 120.446 41.223 121.294 41.5577C122.143 41.8923 122.871 42.4746 123.384 43.2288C123.897 43.983 124.171 44.8741 124.17 45.7862C124.198 46.3629 124.11 46.9393 123.911 47.4814C123.713 48.0235 123.408 48.5203 123.014 48.9424C122.62 49.3646 122.145 49.7035 121.618 49.9393C121.091 50.175 120.522 50.3028 119.945 50.3151ZM103.556 38.2888C102.074 38.2915 100.625 38.7336 99.3943 39.5591C98.1632 40.3845 97.2044 41.5564 96.639 42.9267C96.0737 44.2969 95.9272 45.8039 96.218 47.2574C96.5089 48.7108 97.224 50.0454 98.2731 51.0926C99.3222 52.1397 100.658 52.8524 102.112 53.1406C103.566 53.4288 105.073 53.2795 106.442 52.7116C107.811 52.1438 108.981 51.1828 109.805 49.9501C110.628 48.7175 111.067 47.2685 111.067 45.7862C111.082 44.7964 110.898 43.8136 110.526 42.8963C110.153 41.979 109.6 41.1459 108.9 40.4465C108.199 39.7472 107.365 39.1958 106.447 38.8251C105.529 38.4544 104.546 38.272 103.556 38.2888ZM103.556 50.3151C102.646 50.3788 101.738 50.1672 100.95 49.7078C100.162 49.2483 99.5308 48.5623 99.1381 47.7391C98.7455 46.9158 98.6098 45.9934 98.7486 45.0919C98.8875 44.1905 99.2945 43.3517 99.9167 42.6847C100.539 42.0178 101.347 41.5536 102.237 41.3526C103.127 41.1516 104.056 41.223 104.905 41.5577C105.753 41.8923 106.482 42.4746 106.994 43.2288C107.507 43.983 107.781 44.8741 107.781 45.7862C107.809 46.3629 107.721 46.9393 107.522 47.4814C107.323 48.0235 107.018 48.5203 106.624 48.9424C106.23 49.3646 105.756 49.7035 105.229 49.9393C104.702 50.175 104.133 50.3028 103.556 50.3151ZM84.046 40.6499V43.8256H91.6539C91.5409 45.3139 90.9277 46.7202 89.9142 47.8159C89.1538 48.5938 88.2386 49.2034 87.2277 49.6054C86.2169 50.0073 85.133 50.1927 84.046 50.1494C81.8049 50.1494 79.6556 49.2591 78.0709 47.6744C76.4862 46.0897 75.5959 43.9404 75.5959 41.6992C75.5959 39.4581 76.4862 37.3088 78.0709 35.7241C79.6556 34.1394 81.8049 33.2491 84.046 33.2491C86.1634 33.2067 88.2123 34.0004 89.7485 35.4583L91.9853 33.2215C90.9384 32.1828 89.6941 31.3642 88.3259 30.814C86.9576 30.2638 85.493 29.9933 84.0184 30.0182C80.935 30.0182 77.978 31.243 75.7977 33.4233C73.6174 35.6036 72.3926 38.5607 72.3926 41.644C72.3926 44.7274 73.6174 47.6845 75.7977 49.8647C77.978 52.045 80.935 53.2698 84.0184 53.2698C85.5253 53.3328 87.0283 53.0748 88.428 52.5131C89.8276 51.9513 91.092 51.0986 92.1372 50.0113C93.9954 47.9871 94.9867 45.3155 94.8987 42.5691C94.9055 41.9072 94.85 41.2461 94.733 40.5947L84.046 40.6499ZM163.811 43.1076C163.378 41.7375 162.528 40.5368 161.379 39.673C160.231 38.8092 158.841 38.3253 157.405 38.2888C156.442 38.295 155.49 38.4963 154.607 38.8808C153.723 39.2652 152.927 39.8248 152.267 40.5256C151.606 41.2264 151.094 42.0539 150.762 42.9581C150.43 43.8623 150.285 44.8244 150.335 45.7862C150.315 46.7711 150.493 47.75 150.859 48.6646C151.225 49.5791 151.772 50.4104 152.467 51.1089C153.161 51.8074 153.99 52.3587 154.902 52.73C155.815 53.1013 156.793 53.2849 157.778 53.2698C159.009 53.2769 160.223 52.9777 161.31 52.3993C162.397 51.8208 163.323 50.9813 164.005 49.9561L161.464 48.244C161.083 48.8798 160.542 49.4052 159.895 49.7684C159.249 50.1315 158.519 50.32 157.778 50.3151C157.014 50.3483 156.259 50.1498 155.611 49.7457C154.963 49.3415 154.452 48.7506 154.146 48.0506L164.157 43.9084L163.811 43.1076ZM153.608 45.5653C153.547 44.4686 153.925 43.3929 154.658 42.5747C155.391 41.7564 156.419 41.2628 157.515 41.2022C158.081 41.1648 158.645 41.2956 159.136 41.5782C159.628 41.8607 160.024 42.2824 160.277 42.79L153.608 45.5653ZM145.461 52.828H148.748V30.8052H145.461V52.828ZM140.076 39.9871H139.966C139.465 39.4424 138.854 39.0105 138.173 38.72C137.492 38.4296 136.757 38.2873 136.017 38.3026C134.086 38.3855 132.262 39.211 130.925 40.6066C129.588 42.0023 128.841 43.8604 128.841 45.7931C128.841 47.7259 129.588 49.584 130.925 50.9796C132.262 52.3753 134.086 53.2007 136.017 53.2837C136.759 53.2999 137.495 53.1567 138.176 52.8637C138.857 52.5707 139.468 52.1347 139.966 51.5853H140.076V52.6623C140.076 55.5205 138.544 57.0531 136.072 57.0531C135.251 57.0331 134.453 56.769 133.782 56.2944C133.111 55.8199 132.596 55.1563 132.303 54.3882L129.445 55.5757C129.98 56.8922 130.898 58.018 132.079 58.808C133.26 59.598 134.651 60.016 136.072 60.0079C139.938 60.0079 143.197 57.7296 143.197 52.2067V38.7445H140.076V39.9871ZM136.307 50.3289C135.738 50.3113 135.177 50.1802 134.659 49.9432C134.141 49.7063 133.675 49.3683 133.29 48.949C132.904 48.5298 132.606 48.0378 132.413 47.5018C132.219 46.9658 132.135 46.3966 132.165 45.8277C132.133 45.2548 132.216 44.6814 132.407 44.1406C132.599 43.5998 132.896 43.1025 133.281 42.6774C133.667 42.2522 134.132 41.9078 134.652 41.6641C135.171 41.4204 135.734 41.2821 136.307 41.2574C136.872 41.2869 137.426 41.4296 137.934 41.677C138.443 41.9245 138.897 42.2717 139.27 42.6979C139.642 43.1242 139.925 43.6209 140.101 44.1585C140.278 44.6961 140.344 45.2637 140.297 45.8277C140.345 46.3874 140.277 46.9508 140.1 47.4837C139.922 48.0166 139.638 48.5079 139.265 48.9277C138.892 49.3474 138.437 49.6868 137.929 49.9253C137.42 50.1639 136.868 50.2964 136.307 50.3151V50.3289ZM179.22 30.8052H171.35V52.8142H174.636V44.5298H179.22C180.199 44.6693 181.197 44.5968 182.146 44.3173C183.094 44.0378 183.972 43.5578 184.719 42.9097C185.466 42.2617 186.065 41.4607 186.475 40.561C186.886 39.6614 187.098 38.684 187.098 37.6951C187.098 36.7062 186.886 35.7288 186.475 34.8292C186.065 33.9295 185.466 33.1285 184.719 32.4805C183.972 31.8324 183.094 31.3524 182.146 31.0729C181.197 30.7934 180.199 30.7209 179.22 30.8604V30.8052ZM179.303 41.4093H174.636V33.8704H179.303C180.303 33.8704 181.262 34.2676 181.969 34.9745C182.676 35.6814 183.073 36.6402 183.073 37.6399C183.073 38.6396 182.676 39.5983 181.969 40.3053C181.262 41.0122 180.303 41.4093 179.303 41.4093ZM199.614 38.2474C198.414 38.1765 197.22 38.4576 196.177 39.0561C195.135 39.6545 194.29 40.5444 193.746 41.6164L196.659 42.8453C196.948 42.3113 197.387 41.8738 197.922 41.5867C198.457 41.2996 199.065 41.1755 199.669 41.2298C200.502 41.1489 201.333 41.4013 201.98 41.9319C202.627 42.4624 203.037 43.2278 203.121 44.0603V44.2812C202.065 43.7271 200.89 43.4381 199.697 43.439C196.549 43.439 193.345 45.1649 193.345 48.3958C193.376 49.0808 193.546 49.7524 193.843 50.3703C194.14 50.9881 194.559 51.5394 195.075 51.9909C195.591 52.4425 196.194 52.7849 196.845 52.9975C197.497 53.2102 198.185 53.2887 198.868 53.2284C199.679 53.2602 200.484 53.0794 201.204 52.704C201.923 52.3286 202.532 51.7716 202.969 51.0883H203.08V52.7866H206.255V44.3365C206.297 40.429 203.37 38.2474 199.614 38.2474ZM199.214 50.3151C198.137 50.3151 196.632 49.7766 196.632 48.4511C196.632 46.7528 198.509 46.09 200.125 46.09C201.172 46.0646 202.208 46.3222 203.121 46.8356C202.998 47.789 202.535 48.6659 201.817 49.3051C201.099 49.9444 200.175 50.303 199.214 50.3151ZM217.84 38.7307L214.015 48.3268L210.108 38.7859H206.573L212.427 52.1238L209.086 59.5384H212.524L221.554 38.8273L217.84 38.7307ZM188.251 52.8142H191.537V30.8052H188.251V52.8142Z" fill="#D2D3D4"/>
<path d="M44.8975 44.291L37.6348 36.9593V36.4346L44.8975 29.1719L45.0632 29.2685L53.679 34.1563C56.1367 35.5371 56.1367 37.8429 53.679 39.2375L45.0632 44.1391L44.8975 44.291Z" fill="url(#paint0_linear_2098_7)"/>
<path d="M45.0638 44.1385L37.6354 36.6963L15.6816 58.6363C16.1835 59.0774 16.8234 59.3298 17.4912 59.35C18.1591 59.3701 18.8131 59.1568 19.3406 58.7467L45.0638 44.1385Z" fill="url(#paint1_linear_2098_7)"/>
<path d="M15.6823 14.7571C15.1051 15.4467 14.8137 16.331 14.8677 17.2286V56.1655C14.8137 57.0631 15.1051 57.9474 15.6823 58.637L15.8204 58.7613L37.6361 36.9594V36.4347L15.8204 14.6328L15.6823 14.7571Z" fill="url(#paint2_linear_2098_7)"/>
<path d="M45.0631 29.2676L19.409 14.6456C18.8815 14.2355 18.2275 14.0222 17.5596 14.0423C16.8917 14.0625 16.2518 14.3149 15.75 14.7561L37.6347 36.696L45.0631 29.2676Z" fill="url(#paint3_linear_2098_7)"/>
<path opacity="0.2" d="M44.8974 43.9717L19.409 58.4833C18.9015 58.8652 18.2836 59.0718 17.6485 59.0718C17.0134 59.0718 16.3955 58.8652 15.8881 58.4833L15.75 58.6075L15.8881 58.7318C16.3946 59.1159 17.0128 59.3238 17.6485 59.3238C18.2842 59.3238 18.9025 59.1159 19.409 58.7318L45.0631 44.1374L44.8974 43.9717Z" fill="black"/>
<path opacity="0.12" d="M53.6779 38.9881L44.8964 43.9725L45.0621 44.1382L53.6779 39.2366C54.1843 39.0176 54.6222 38.666 54.9454 38.2188C55.2686 37.7717 55.4651 37.2456 55.5143 36.696C55.4089 37.1952 55.1879 37.6626 54.8689 38.0607C54.55 38.4588 54.142 38.7764 53.6779 38.9881Z" fill="black"/>
<defs>
<linearGradient id="paint0_linear_2098_7" x1="56.8823" y1="36.6969" x2="14.2864" y2="36.6969" gradientUnits="userSpaceOnUse">
<stop stop-color="#FFE000"/>
<stop offset="0.41" stop-color="#FFBD00"/>
<stop offset="0.78" stop-color="#FFA500"/>
<stop offset="1" stop-color="#FF9C00"/>
</linearGradient>
<linearGradient id="paint1_linear_2098_7" x1="41.0182" y1="40.7281" x2="0.962957" y2="80.7971" gradientUnits="userSpaceOnUse">
<stop stop-color="#FF3A44"/>
<stop offset="1" stop-color="#C31162"/>
</linearGradient>
<linearGradient id="paint2_linear_2098_7" x1="35.6893" y1="16.8144" x2="6.15523" y2="46.3622" gradientUnits="userSpaceOnUse">
<stop stop-color="#00A0FF"/>
<stop offset="0.01" stop-color="#00A1FF"/>
<stop offset="0.26" stop-color="#00BEFF"/>
<stop offset="0.51" stop-color="#00D2FF"/>
<stop offset="0.76" stop-color="#00DFFF"/>
<stop offset="1" stop-color="#00E3FF"/>
</linearGradient>
<linearGradient id="paint3_linear_2098_7" x1="10.158" y1="1.7909" x2="28.0524" y2="19.6853" gradientUnits="userSpaceOnUse">
<stop stop-color="#32A071"/>
<stop offset="0.07" stop-color="#2DA771"/>
<stop offset="0.48" stop-color="#15CF74"/>
<stop offset="0.8" stop-color="#06E775"/>
<stop offset="1" stop-color="#00F076"/>
</linearGradient>
</defs>
</svg>
