<svg width="212" height="72" viewBox="0 0 212 72" fill="none" xmlns="http://www.w3.org/2000/svg">
<path d="M194.976 0.908432H17.7521C17.1061 0.908432 16.4678 0.908432 15.8235 0.911955C15.2842 0.915479 14.7491 0.925714 14.2046 0.934329C13.0217 0.948249 11.8415 1.05232 10.6744 1.24563C9.50892 1.44316 8.37995 1.81554 7.32567 2.3502C6.27269 2.88938 5.31054 3.58999 4.47414 4.42661C3.63335 5.26088 2.93249 6.22519 2.3985 7.28244C1.86304 8.3376 1.49175 9.46829 1.29746 10.6355C1.10132 11.8012 0.99577 12.9803 0.981767 14.1623C0.965419 14.7025 0.963693 15.2444 0.955078 15.7846V56.5043C0.963693 57.0513 0.965419 57.5813 0.981767 58.1284C0.995774 59.3104 1.10132 60.4895 1.29746 61.6551C1.49122 62.823 1.86253 63.9543 2.3985 65.0099C2.93225 66.0637 3.63321 67.0241 4.47414 67.8537C5.30737 68.6941 6.27014 69.3952 7.32567 69.9302C8.37994 70.4663 9.50879 70.8409 10.6744 71.0415C11.8417 71.2333 13.0218 71.3374 14.2046 71.353C14.7491 71.3649 15.2842 71.3718 15.8235 71.3718C16.4678 71.3753 17.1061 71.3753 17.7521 71.3753H194.976C195.61 71.3753 196.253 71.3753 196.886 71.3718C197.423 71.3718 197.973 71.3649 198.51 71.353C199.691 71.3382 200.869 71.2341 202.034 71.0415C203.203 70.8395 204.336 70.465 205.395 69.9302C206.45 69.3949 207.412 68.6938 208.244 67.8537C209.083 67.0209 209.785 66.0612 210.326 65.0099C210.858 63.9536 211.225 62.8223 211.416 61.6551C211.613 60.4893 211.722 59.3105 211.743 58.1284C211.75 57.5813 211.75 57.0513 211.75 56.5043C211.764 55.8643 211.764 55.2278 211.764 54.5774V17.708C211.764 17.0628 211.764 16.4228 211.75 15.7846C211.75 15.2444 211.75 14.7025 211.743 14.1623C211.722 12.9802 211.613 11.8013 211.416 10.6354C211.225 9.46889 210.857 8.33829 210.326 7.28237C209.238 5.16322 207.514 3.43824 205.395 2.35004C204.336 1.81669 203.203 1.4444 202.034 1.24548C200.869 1.05131 199.691 0.947203 198.51 0.934082C197.973 0.925485 197.423 0.915162 196.886 0.911726C196.253 0.908203 195.61 0.908432 194.976 0.908432Z" fill="#6E6E6E"/>
<path d="M44.5877 36.6737C44.6262 33.685 46.193 30.9244 48.7392 29.3591C47.1257 27.0546 44.5199 25.6459 41.7081 25.558C38.7498 25.2474 35.8819 27.3281 34.3744 27.3281C32.8378 27.3281 30.5168 25.5888 28.0174 25.6402C24.729 25.7465 21.7375 27.5708 20.1376 30.4458C16.7305 36.3446 19.2719 45.0139 22.5356 49.7821C24.1685 52.1169 26.0769 54.725 28.574 54.6325C31.0175 54.5311 31.9301 53.0743 34.8797 53.0743C37.8019 53.0743 38.6581 54.6325 41.2059 54.5737C43.8279 54.5311 45.4799 52.2285 47.0555 49.8715C48.2287 48.2079 49.1315 46.3692 49.7305 44.4235C46.6163 43.1064 44.5914 40.0549 44.5877 36.6737Z" fill="#D2D3D4"/>
<path d="M39.7741 22.4218C41.2037 20.7056 41.908 18.4996 41.7375 16.2725C39.5533 16.5019 37.5357 17.5458 36.0868 19.1962C34.656 20.8245 33.9312 22.9548 34.0719 25.1178C36.2854 25.1406 38.387 24.1469 39.7741 22.4218Z" fill="#D2D3D4"/>
<path d="M75.4786 48.7223H67.1399L65.1374 54.6352H61.6055L69.5037 32.7588H73.1733L81.0716 54.6352H77.4794L75.4786 48.7223ZM68.0036 45.9937H74.6134L71.3549 36.3974H71.2638L68.0036 45.9937Z" fill="#D2D3D4"/>
<path d="M98.1296 46.6602C98.1296 51.6166 95.4768 54.801 91.4735 54.801C89.4042 54.9093 87.455 53.8254 86.4551 52.0105H86.3794V59.9106H83.1055V38.6845H86.2745V41.3373H86.3347C87.379 39.5338 89.3303 38.4504 91.4133 38.5176C95.4612 38.5176 98.1296 41.7175 98.1296 46.6602ZM94.7646 46.6602C94.7646 43.431 93.0958 41.3081 90.5496 41.3081C88.0482 41.3081 86.3656 43.4758 86.3656 46.6602C86.3656 49.8739 88.0482 52.0261 90.5496 52.0261C93.0958 52.0261 94.7646 49.9186 94.7646 46.6602Z" fill="#D2D3D4"/>
<path d="M115.682 46.6602C115.682 51.6166 113.03 54.801 109.026 54.801C106.957 54.9093 105.008 53.8254 104.008 52.0105H103.932V59.9105H100.658V38.6845H103.827V41.3373H103.887C104.932 39.5338 106.883 38.4504 108.966 38.5176C113.014 38.5176 115.682 41.7175 115.682 46.6602ZM112.317 46.6602C112.317 43.431 110.649 41.3081 108.102 41.3081C105.601 41.3081 103.918 43.4757 103.918 46.6602C103.918 49.8739 105.601 52.0261 108.102 52.0261C110.649 52.0261 112.317 49.9186 112.317 46.6602Z" fill="#D2D3D4"/>
<path d="M127.285 48.5385C127.528 50.7079 129.635 52.1323 132.515 52.1323C135.274 52.1323 137.26 50.7078 137.26 48.7517C137.26 47.0537 136.062 46.037 133.227 45.3402L130.392 44.6572C126.375 43.6869 124.51 41.8082 124.51 38.7597C124.51 34.9852 127.799 32.3926 132.47 32.3926C137.093 32.3926 140.262 34.9852 140.368 38.7597H137.064C136.866 36.5765 135.061 35.2587 132.424 35.2587C129.786 35.2587 127.982 36.5921 127.982 38.5326C127.982 40.0793 129.134 40.9893 131.954 41.686L134.364 42.2778C138.853 43.3393 140.718 45.1423 140.718 48.3422C140.718 52.435 137.458 54.9984 132.272 54.9984C127.421 54.9984 124.145 52.4952 123.934 48.5383L127.285 48.5385Z" fill="#D2D3D4"/>
<path d="M147.786 34.9092V38.6837H150.819V41.2763H147.786V50.0692C147.786 51.4352 148.393 52.0717 149.727 52.0717C150.087 52.0654 150.446 52.0402 150.804 51.996V54.5731C150.204 54.6851 149.595 54.7358 148.985 54.7245C145.756 54.7245 144.497 53.5116 144.497 50.4184V41.2763H142.178V38.6837H144.497V34.9092H147.786Z" fill="#D2D3D4"/>
<path d="M152.574 46.6611C152.574 41.6427 155.53 38.4893 160.139 38.4893C164.763 38.4893 167.705 41.6427 167.705 46.6611C167.705 51.6932 164.779 54.8329 160.139 54.8329C155.501 54.8329 152.574 51.6932 152.574 46.6611ZM164.369 46.6611C164.369 43.2186 162.792 41.1868 160.139 41.1868C157.486 41.1868 155.91 43.2341 155.91 46.6611C155.91 50.1173 157.486 52.1336 160.139 52.1336C162.792 52.1336 164.369 50.1173 164.369 46.6611Z" fill="#D2D3D4"/>
<path d="M170.408 38.6843H173.531V41.3991H173.606C174.042 39.6515 175.643 38.4487 177.443 38.5174C177.82 38.5161 178.196 38.5571 178.565 38.6396V41.7019C178.088 41.5563 177.591 41.4895 177.094 41.504C176.131 41.465 175.2 41.8486 174.544 42.5541C173.888 43.2596 173.573 44.2165 173.682 45.1736V54.634H170.408L170.408 38.6843Z" fill="#D2D3D4"/>
<path d="M193.655 49.9504C193.215 52.8458 190.395 54.8329 186.787 54.8329C182.147 54.8329 179.268 51.7242 179.268 46.7368C179.268 41.7339 182.163 38.4893 186.65 38.4893C191.063 38.4893 193.838 41.5206 193.838 46.3566V47.4783H182.572V47.6761C182.467 48.8635 182.877 50.0389 183.698 50.9033C184.519 51.7676 185.672 52.2377 186.863 52.1938C188.452 52.3427 189.95 51.4304 190.546 49.9504L193.655 49.9504ZM182.588 45.1902L190.562 45.1901C190.621 44.1232 190.233 43.0798 189.49 42.3113C188.748 41.5429 187.718 41.1191 186.65 41.1421C185.573 41.1357 184.538 41.5596 183.775 42.3198C183.013 43.08 182.585 44.1133 182.588 45.1902Z" fill="#D2D3D4"/>
<path d="M67.5918 16.2893C68.9817 16.1895 70.343 16.7183 71.3011 17.7301C72.2592 18.7419 72.7132 20.13 72.5379 21.5124C72.5379 24.8706 70.7229 26.8009 67.5918 26.8009H63.7949V16.2893H67.5918ZM65.4276 25.3143H67.4094C68.4027 25.3737 69.3699 24.9824 70.0423 24.249C70.7148 23.5156 71.0211 22.5182 70.876 21.5338C71.0105 20.5535 70.6999 19.5643 70.029 18.8369C69.3582 18.1095 68.3974 17.7199 67.4094 17.7747H65.4276V25.3143Z" fill="#D2D3D4"/>
<path d="M74.381 22.8308C74.245 21.4089 74.9268 20.0328 76.1405 19.2797C77.3542 18.5266 78.8899 18.5266 80.1035 19.2797C81.3172 20.0328 81.999 21.4089 81.863 22.8308C82.0016 24.2542 81.3204 25.6329 80.1057 26.3877C78.8909 27.1424 77.3531 27.1424 76.1383 26.3877C74.9236 25.6329 74.2424 24.2542 74.381 22.8308ZM80.2527 22.8308C80.2527 21.1113 79.4802 20.1057 78.1246 20.1057C76.7638 20.1057 75.9983 21.1113 75.9983 22.8308C75.9983 24.5641 76.7638 25.5619 78.1246 25.5619C79.4803 25.5619 80.2527 24.5572 80.2527 22.8308Z" fill="#D2D3D4"/>
<path d="M91.8074 26.8018H90.1834L88.5439 20.9594H88.42L86.7874 26.8018H85.1788L82.9922 18.8691H84.5801L86.0011 24.9222H86.1181L87.7491 18.8691H89.251L90.8819 24.9222H91.0057L92.4199 18.8691H93.9854L91.8074 26.8018Z" fill="#D2D3D4"/>
<path d="M95.8281 18.869H97.3352V20.1292H97.4522C97.859 19.2013 98.8097 18.6338 99.8194 18.7159C100.601 18.6571 101.367 18.957 101.902 19.531C102.436 20.105 102.68 20.8907 102.565 21.6663V26.8016H101V22.0594C101 20.7846 100.446 20.1507 99.2878 20.1507C98.7575 20.126 98.2428 20.3341 97.8788 20.7205C97.5147 21.1069 97.3375 21.633 97.3937 22.1609V26.8017H95.8281L95.8281 18.869Z" fill="#D2D3D4"/>
<path d="M105.061 15.7715H106.626V26.8009H105.061V15.7715Z" fill="#D2D3D4"/>
<path d="M108.801 22.8309C108.665 21.409 109.347 20.0329 110.561 19.2797C111.774 18.5266 113.31 18.5266 114.524 19.2797C115.738 20.0329 116.42 21.409 116.284 22.8309C116.422 24.2544 115.741 25.6331 114.526 26.3878C113.311 27.1425 111.773 27.1425 110.559 26.3878C109.344 25.6331 108.662 24.2544 108.801 22.8309ZM114.673 22.8309C114.673 21.1114 113.9 20.1058 112.544 20.1058C111.184 20.1058 110.418 21.1114 110.418 22.8309C110.418 24.5642 111.184 25.562 112.544 25.562C113.9 25.562 114.673 24.5573 114.673 22.8309Z" fill="#D2D3D4"/>
<path d="M117.93 24.5573C117.93 23.1293 118.993 22.3061 120.88 22.1891L123.029 22.0653V21.3806C123.029 20.5427 122.475 20.0696 121.405 20.0696C120.531 20.0696 119.925 20.3905 119.752 20.9513H118.236C118.396 19.5888 119.678 18.7148 121.477 18.7148C123.466 18.7148 124.588 19.7049 124.588 21.3806V26.8006H123.081V25.6858H122.957C122.445 26.5 121.535 26.9758 120.574 26.9313C119.9 27.0014 119.229 26.7833 118.725 26.331C118.221 25.8786 117.932 25.2343 117.93 24.5573ZM123.029 23.8794V23.2162L121.092 23.3401C119.999 23.4132 119.504 23.7848 119.504 24.4841C119.504 25.1981 120.123 25.6136 120.975 25.6136C121.479 25.6646 121.982 25.5088 122.369 25.1819C122.757 24.855 122.995 24.385 123.029 23.8794Z" fill="#D2D3D4"/>
<path d="M126.648 22.8311C126.648 20.3245 127.937 18.7366 129.941 18.7366C130.953 18.69 131.901 19.2322 132.374 20.1283H132.491V15.7715H134.056V26.8009H132.556V25.5476H132.432C131.924 26.4362 130.964 26.9693 129.941 26.9316C127.923 26.9317 126.648 25.3437 126.648 22.8311ZM128.266 22.8311C128.266 24.5136 129.059 25.5261 130.385 25.5261C131.705 25.5261 132.52 24.499 132.52 22.838C132.52 21.1847 131.696 20.143 130.385 20.143C129.067 20.143 128.266 21.1623 128.266 22.8311Z" fill="#D2D3D4"/>
<path d="M140.532 22.8308C140.396 21.4089 141.077 20.0328 142.291 19.2797C143.505 18.5266 145.04 18.5266 146.254 19.2797C147.468 20.0328 148.15 21.4089 148.014 22.8308C148.152 24.2542 147.471 25.6329 146.256 26.3877C145.041 27.1424 143.504 27.1424 142.289 26.3877C141.074 25.6329 140.393 24.2542 140.532 22.8308ZM146.403 22.8308C146.403 21.1113 145.631 20.1057 144.275 20.1057C142.914 20.1057 142.149 21.1113 142.149 22.8308C142.149 24.5641 142.914 25.5619 144.275 25.5619C145.631 25.5619 146.403 24.5572 146.403 22.8308Z" fill="#D2D3D4"/>
<path d="M150.115 18.869H151.622V20.1292H151.739C152.146 19.2013 153.097 18.6338 154.107 18.7159C154.888 18.6571 155.655 18.957 156.189 19.531C156.723 20.105 156.967 20.8907 156.852 21.6663V26.8016H155.287V22.0594C155.287 20.7846 154.733 20.1507 153.575 20.1507C153.045 20.126 152.53 20.3341 152.166 20.7205C151.802 21.1069 151.625 21.633 151.681 22.1609V26.8017H150.115V18.869Z" fill="#D2D3D4"/>
<path d="M165.696 16.8936V18.9047H167.414V20.2234H165.696V24.3024C165.696 25.1333 166.038 25.4972 166.817 25.4972C167.017 25.4966 167.216 25.4845 167.414 25.4611V26.7651C167.133 26.8154 166.848 26.8422 166.563 26.8451C164.822 26.8451 164.128 26.2326 164.128 24.7032V20.2233H162.869V18.9046H164.128V16.8936H165.696Z" fill="#D2D3D4"/>
<path d="M169.555 15.7715H171.106V20.143H171.23C171.657 19.207 172.624 18.6388 173.649 18.722C174.427 18.6796 175.182 18.9862 175.711 19.5581C176.239 20.13 176.485 20.9076 176.381 21.6793V26.8009H174.814V22.0655C174.814 20.7984 174.224 20.1567 173.118 20.1567C172.573 20.1121 172.036 20.3101 171.651 20.6978C171.266 21.0856 171.072 21.6235 171.12 22.1679V26.8008H169.555L169.555 15.7715Z" fill="#D2D3D4"/>
<path d="M185.511 24.6589C185.072 26.1552 183.624 27.122 182.073 26.9539C181.016 26.9818 179.999 26.5434 179.293 25.7549C178.588 24.9664 178.264 23.9076 178.409 22.8594C178.268 21.8083 178.59 20.7478 179.292 19.9526C179.994 19.1575 181.006 18.7059 182.066 18.715C184.274 18.715 185.605 20.223 185.605 22.714V23.2603H180.004V23.348C179.954 23.9366 180.155 24.5189 180.557 24.9515C180.96 25.3842 181.526 25.6271 182.116 25.6205C182.882 25.7125 183.628 25.3326 184.004 24.6588L185.511 24.6589ZM180.004 22.1024H184.01C184.05 21.564 183.861 21.0339 183.489 20.6425C183.117 20.2512 182.597 20.035 182.058 20.0474C181.511 20.0405 180.984 20.2549 180.597 20.6418C180.211 21.0287 179.997 21.5554 180.004 22.1024Z" fill="#D2D3D4"/>
</svg>
