<svg width="161" height="55" viewBox="0 0 161 55" fill="none" xmlns="http://www.w3.org/2000/svg">
<g clip-path="url(#clip0_0_665)">
<g clip-path="url(#clip1_0_665)">
<path d="M147.74 0.632986H13.1221C12.6314 0.632986 12.1466 0.632986 11.6572 0.635663C11.2475 0.638339 10.8411 0.646114 10.4275 0.652657C9.52897 0.663231 8.63253 0.742282 7.746 0.889122C6.86071 1.03916 6.00315 1.32202 5.20233 1.72814C4.40249 2.1377 3.67165 2.66988 3.03633 3.30537C2.39768 3.93907 1.86531 4.67155 1.4597 5.47463C1.05297 6.27612 0.770936 7.13498 0.623351 8.02157C0.474362 8.90703 0.39419 9.8027 0.383554 10.7005C0.371136 11.1108 0.369825 11.5225 0.363281 11.9328V42.8632C0.369825 43.2787 0.371136 43.6812 0.383554 44.0968C0.394194 44.9946 0.474366 45.8903 0.623351 46.7757C0.770529 47.6628 1.05257 48.5221 1.4597 49.3239C1.86512 50.1244 2.39757 50.8539 3.03633 51.4841C3.66925 52.1224 4.40056 52.6549 5.20233 53.0614C6.00315 53.4686 6.86061 53.7531 7.746 53.9055C8.63268 54.0511 9.52903 54.1302 10.4275 54.1421C10.8411 54.1512 11.2475 54.1564 11.6572 54.1564C12.1466 54.1591 12.6315 54.1591 13.1221 54.1591H147.74C148.221 54.1591 148.71 54.1591 149.191 54.1564C149.599 54.1564 150.017 54.1512 150.425 54.1421C151.321 54.1309 152.216 54.0518 153.101 53.9055C153.989 53.7521 154.85 53.4676 155.654 53.0614C156.455 52.6547 157.186 52.1222 157.818 51.4841C158.455 50.8514 158.989 50.1225 159.399 49.3239C159.804 48.5215 160.083 47.6623 160.228 46.7757C160.377 45.8901 160.46 44.9947 160.476 44.0968C160.482 43.6812 160.482 43.2787 160.482 42.8632C160.492 42.377 160.492 41.8936 160.492 41.3995V13.3938C160.492 12.9037 160.492 12.4176 160.482 11.9328C160.482 11.5225 160.482 11.1108 160.476 10.7005C160.46 9.80257 160.377 8.90709 160.228 8.02151C160.083 7.13544 159.803 6.27665 159.399 5.47458C158.573 3.86489 157.264 2.55461 155.654 1.72802C154.85 1.32289 153.989 1.04011 153.101 0.889002C152.216 0.741514 151.321 0.662436 150.425 0.65247C150.017 0.64594 149.599 0.638098 149.191 0.635489C148.71 0.632812 148.221 0.632986 147.74 0.632986Z" fill="#A6A6A6"/>
<path d="M11.6635 52.987C11.2558 52.987 10.8579 52.9818 10.4534 52.9727C9.61544 52.9618 8.77943 52.8889 7.95222 52.7545C7.1809 52.6216 6.4337 52.3745 5.73525 52.0213C5.04322 51.671 4.41203 51.2117 3.86586 50.6609C3.31178 50.1167 2.85049 49.4854 2.50026 48.7922C2.14617 48.0945 1.90112 47.3466 1.77364 46.5746C1.63598 45.7451 1.5615 44.9064 1.55084 44.0656C1.54236 43.7834 1.53125 42.8437 1.53125 42.8437V11.9317C1.53125 11.9317 1.54308 11.0064 1.55091 10.7346C1.56111 9.89518 1.63516 9.05773 1.77241 8.22952C1.90012 7.45542 2.14536 6.70539 2.49964 6.00537C2.84859 5.31263 3.30732 4.68091 3.85805 4.1347C4.40817 3.58331 5.04139 3.12162 5.7346 2.76648C6.43143 2.41439 7.17723 2.16903 7.94699 2.03861C8.77691 1.90288 9.61583 1.82949 10.4567 1.81907L11.6642 1.80273H149.184L150.406 1.81973C151.239 1.82963 152.07 1.90236 152.893 2.0373C153.67 2.16935 154.424 2.41643 155.129 2.77041C156.517 3.48611 157.647 4.61842 158.36 6.00864C158.709 6.70382 158.95 7.44774 159.077 8.21514C159.215 9.05015 159.293 9.89419 159.309 10.7405C159.313 11.1195 159.313 11.5265 159.313 11.9317C159.324 12.4335 159.324 12.9111 159.324 13.3926V41.3984C159.324 41.8845 159.324 42.3589 159.313 42.8372C159.313 43.2723 159.313 43.671 159.308 44.0812C159.292 44.9125 159.216 45.7414 159.079 46.5615C158.954 47.3391 158.71 48.0928 158.356 48.7962C158.004 49.4819 157.545 50.1077 156.997 50.6505C156.451 51.2042 155.818 51.6662 155.125 52.0188C154.422 52.3747 153.67 52.6227 152.893 52.7545C152.066 52.8896 151.23 52.9625 150.391 52.9727C150 52.9818 149.589 52.987 149.191 52.987L147.74 52.9897L11.6635 52.987Z" fill="black"/>
<path d="M33.5081 27.7995C33.5373 25.5293 34.7275 23.4324 36.6615 22.2434C35.4359 20.4929 33.4566 19.4229 31.3207 19.3561C29.0737 19.1202 26.8952 20.7007 25.7501 20.7007C24.5829 20.7007 22.8199 19.3795 20.9214 19.4186C18.4235 19.4993 16.1513 20.885 14.936 23.0689C12.348 27.5496 14.2784 34.1347 16.7575 37.7565C17.9978 39.5301 19.4474 41.5111 21.3442 41.4409C23.2003 41.3639 23.8935 40.2573 26.1339 40.2573C28.3536 40.2573 29.004 41.4409 30.9392 41.3962C32.9309 41.3639 34.1858 39.6148 35.3826 37.8245C36.2738 36.5608 36.9595 35.1641 37.4145 33.6862C35.049 32.6857 33.5108 30.3679 33.5081 27.7995Z" fill="#D2D3D4"/>
<path d="M29.8522 16.9737C30.9382 15.6701 31.4732 13.9945 31.3436 12.3027C29.6845 12.477 28.152 13.2699 27.0514 14.5235C25.9646 15.7604 25.414 17.3786 25.5209 19.0216C27.2022 19.0389 28.7986 18.2841 29.8522 16.9737Z" fill="#D2D3D4"/>
<path d="M56.9715 36.9519H50.6375L49.1164 41.4434H46.4336L52.4331 24.8262H55.2204L61.2199 41.4434H58.4913L56.9715 36.9519ZM51.2935 34.8794H56.3143L53.8392 27.5901H53.77L51.2935 34.8794Z" fill="#D2D3D4"/>
<path d="M74.1739 35.3865C74.1739 39.1514 72.1589 41.5702 69.118 41.5702C67.5462 41.6524 66.0656 40.8292 65.3061 39.4506H65.2485V45.4514H62.7617V29.3282H65.1689V31.3433H65.2146C66.0079 29.9734 67.49 29.1504 69.0722 29.2015C72.1471 29.2015 74.1739 31.6321 74.1739 35.3865ZM71.6179 35.3865C71.6179 32.9337 70.3503 31.3211 68.4162 31.3211C66.5162 31.3211 65.2381 32.9676 65.2381 35.3865C65.2381 37.8276 66.5162 39.4624 68.4162 39.4624C70.3503 39.4624 71.6179 37.8616 71.6179 35.3865Z" fill="#D2D3D4"/>
<path d="M87.5099 35.3865C87.5099 39.1514 85.4948 41.5702 82.4539 41.5702C80.8821 41.6524 79.4015 40.8292 78.642 39.4506H78.5845V45.4514H76.0977V29.3282H78.5048V31.3433H78.5505C79.3438 29.9733 80.8259 29.1504 82.4081 29.2015C85.4831 29.2015 87.5099 31.6321 87.5099 35.3865ZM84.9538 35.3865C84.9538 32.9337 83.6862 31.3211 81.7522 31.3211C79.8521 31.3211 78.5741 32.9676 78.5741 35.3865C78.5741 37.8276 79.8521 39.4624 81.7522 39.4624C83.6862 39.4624 84.9538 37.8616 84.9538 35.3865Z" fill="#D2D3D4"/>
<path d="M96.323 36.8131C96.5073 38.461 98.1081 39.5429 100.296 39.5429C102.392 39.5429 103.9 38.4609 103.9 36.9751C103.9 35.6853 102.99 34.913 100.837 34.3837L98.6831 33.8649C95.6317 33.1279 94.2152 31.7009 94.2152 29.3853C94.2152 26.5182 96.7137 24.5488 100.262 24.5488C103.773 24.5488 106.18 26.5182 106.261 29.3853H103.751C103.6 27.7269 102.23 26.7259 100.226 26.7259C98.223 26.7259 96.8522 27.7387 96.8522 29.2128C96.8522 30.3876 97.7278 31.0789 99.8696 31.6081L101.7 32.0576C105.11 32.8639 106.526 34.2334 106.526 36.664C106.526 39.7729 104.05 41.72 100.111 41.72C96.4262 41.72 93.9381 39.8186 93.7773 36.813L96.323 36.8131Z" fill="#D2D3D4"/>
<path d="M111.897 26.4609V29.328H114.201V31.2974H111.897V37.9764C111.897 39.014 112.358 39.4975 113.371 39.4975C113.644 39.4927 113.917 39.4735 114.189 39.4399V41.3975C113.734 41.4826 113.271 41.5211 112.808 41.5125C110.355 41.5125 109.398 40.5912 109.398 38.2416V31.2974H107.637V29.328H109.398V26.4609H111.897Z" fill="#D2D3D4"/>
<path d="M115.535 35.385C115.535 31.5731 117.78 29.1777 121.281 29.1777C124.794 29.1777 127.028 31.573 127.028 35.385C127.028 39.2073 124.806 41.5922 121.281 41.5922C117.758 41.5922 115.535 39.2073 115.535 35.385ZM124.494 35.385C124.494 32.7701 123.296 31.2268 121.281 31.2268C119.266 31.2268 118.069 32.7819 118.069 35.385C118.069 38.0103 119.266 39.5419 121.281 39.5419C123.296 39.5419 124.494 38.0103 124.494 35.385Z" fill="#D2D3D4"/>
<path d="M129.078 29.3281H131.45V31.3902H131.507C131.838 30.0628 133.055 29.1491 134.422 29.2013C134.708 29.2003 134.994 29.2315 135.274 29.2941V31.6202C134.912 31.5097 134.534 31.4589 134.156 31.4699C133.425 31.4403 132.718 31.7316 132.219 32.2675C131.721 32.8034 131.482 33.5303 131.565 34.2573V41.4433H129.078L129.078 29.3281Z" fill="#D2D3D4"/>
<path d="M146.737 37.8855C146.403 40.0848 144.261 41.5942 141.521 41.5942C137.996 41.5942 135.809 39.2328 135.809 35.4444C135.809 31.6443 138.008 29.1797 141.416 29.1797C144.768 29.1797 146.876 31.4822 146.876 35.1556V36.0077H138.319V36.1579C138.239 37.0599 138.55 37.9527 139.174 38.6093C139.798 39.2658 140.673 39.6229 141.578 39.5896C142.785 39.7026 143.923 39.0097 144.376 37.8855L146.737 37.8855ZM138.331 34.2696L144.388 34.2696C144.433 33.4592 144.138 32.6666 143.574 32.0829C143.01 31.4992 142.228 31.1773 141.416 31.1948C140.598 31.1899 139.812 31.5119 139.233 32.0893C138.653 32.6668 138.329 33.4517 138.331 34.2696Z" fill="#D2D3D4"/>
<path d="M50.9817 12.3177C52.0375 12.2419 53.0715 12.6436 53.7993 13.4121C54.5271 14.1806 54.8719 15.235 54.7388 16.2851C54.7388 18.8359 53.3601 20.3022 50.9817 20.3022H48.0977V12.3177H50.9817ZM49.3378 19.173H50.8432C51.5977 19.2181 52.3323 18.9209 52.8431 18.3638C53.354 17.8067 53.5866 17.0491 53.4764 16.3013C53.5785 15.5567 53.3426 14.8054 52.833 14.2528C52.3235 13.7003 51.5937 13.4044 50.8432 13.446H49.3378V19.173Z" fill="#D2D3D4"/>
<path d="M56.1424 17.2866C56.0391 16.2065 56.557 15.1613 57.4789 14.5892C58.4007 14.0171 59.5673 14.0171 60.4892 14.5892C61.4111 15.1613 61.9289 16.2065 61.8256 17.2866C61.9309 18.3678 61.4135 19.4151 60.4908 19.9884C59.5681 20.5617 58.3999 20.5617 57.4772 19.9884C56.5545 19.4151 56.0371 18.3678 56.1424 17.2866ZM60.6025 17.2866C60.6025 15.9805 60.0157 15.2166 58.986 15.2166C57.9523 15.2166 57.3708 15.9805 57.3708 17.2866C57.3708 18.6032 57.9523 19.3611 58.986 19.3611C60.0157 19.3611 60.6025 18.5979 60.6025 17.2866Z" fill="#D2D3D4"/>
<path d="M69.3757 20.3029H68.1421L66.8967 15.8651H66.8026L65.5625 20.3029H64.3406L62.6797 14.2773H63.8859L64.9653 18.8752H65.0541L66.293 14.2773H67.4338L68.6726 18.8752H68.7667L69.8409 14.2773H71.0301L69.3757 20.3029Z" fill="#D2D3D4"/>
<path d="M72.4297 14.2766H73.5744V15.2338H73.6633C73.9723 14.529 74.6944 14.0979 75.4614 14.1603C76.0553 14.1156 76.6373 14.3434 77.043 14.7794C77.4488 15.2154 77.6342 15.8122 77.5471 16.4014V20.3021H76.3579V16.7C76.3579 15.7317 75.9371 15.2501 75.0576 15.2501C74.6548 15.2314 74.2639 15.3895 73.9873 15.683C73.7108 15.9765 73.5762 16.3761 73.6189 16.7771V20.3022H72.4297L72.4297 14.2766Z" fill="#D2D3D4"/>
<path d="M79.4414 11.9238H80.6306V20.3016H79.4414V11.9238Z" fill="#D2D3D4"/>
<path d="M82.283 17.2867C82.1797 16.2066 82.6977 15.1613 83.6197 14.5892C84.5416 14.0171 85.7082 14.0171 86.6302 14.5892C87.5521 15.1613 88.0701 16.2066 87.9669 17.2867C88.072 18.3679 87.5545 19.4152 86.6318 19.9885C85.709 20.5618 84.5409 20.5618 83.6181 19.9885C82.6953 19.4152 82.1778 18.3679 82.283 17.2867ZM86.743 17.2867C86.743 15.9806 86.1563 15.2168 85.1266 15.2168C84.0929 15.2168 83.5114 15.9806 83.5114 17.2867C83.5114 18.6033 84.0929 19.3612 85.1266 19.3612C86.1563 19.3612 86.743 18.5981 86.743 17.2867Z" fill="#D2D3D4"/>
<path d="M89.2188 18.598C89.2188 17.5134 90.0263 16.8881 91.4599 16.7992L93.0921 16.7051V16.185C93.0921 15.5486 92.6713 15.1892 91.8585 15.1892C91.1946 15.1892 90.7346 15.433 90.6026 15.859H89.4514C89.5729 14.824 90.5465 14.1602 91.9133 14.1602C93.424 14.1602 94.276 14.9122 94.276 16.185V20.3021H93.1313V19.4553H93.0372C92.6484 20.0737 91.957 20.4351 91.2273 20.4013C90.7158 20.4545 90.2056 20.2889 89.8229 19.9453C89.4402 19.6017 89.2208 19.1123 89.2188 18.598ZM93.0921 18.0831V17.5794L91.6206 17.6734C90.7908 17.729 90.4145 18.0112 90.4145 18.5425C90.4145 19.0848 90.8849 19.4004 91.5318 19.4004C91.9148 19.4391 92.2971 19.3208 92.5912 19.0725C92.8853 18.8242 93.0661 18.4672 93.0921 18.0831Z" fill="#D2D3D4"/>
<path d="M95.8398 17.2863C95.8398 15.3823 96.8186 14.1761 98.341 14.1761C99.1098 14.1407 99.8298 14.5526 100.189 15.2332H100.278V11.9238H101.467V20.3016H100.327V19.3496H100.233C99.8471 20.0246 99.1182 20.4296 98.3411 20.401C96.8082 20.401 95.8398 19.1948 95.8398 17.2863ZM97.0683 17.2863C97.0683 18.5643 97.6707 19.3333 98.6782 19.3333C99.6805 19.3333 100.3 18.5532 100.3 17.2915C100.3 16.0357 99.674 15.2444 98.6782 15.2444C97.6772 15.2444 97.0683 16.0187 97.0683 17.2863Z" fill="#D2D3D4"/>
<path d="M106.385 17.2866C106.281 16.2065 106.799 15.1613 107.721 14.5892C108.643 14.0171 109.809 14.0171 110.731 14.5892C111.653 15.1613 112.171 16.2065 112.068 17.2866C112.173 18.3678 111.656 19.4151 110.733 19.9884C109.81 20.5617 108.642 20.5617 107.719 19.9884C106.797 19.4151 106.279 18.3678 106.385 17.2866ZM110.845 17.2866C110.845 15.9805 110.258 15.2166 109.228 15.2166C108.194 15.2166 107.613 15.9805 107.613 17.2866C107.613 18.6032 108.195 19.3611 109.228 19.3611C110.258 19.3611 110.845 18.5979 110.845 17.2866Z" fill="#D2D3D4"/>
<path d="M113.668 14.2766H114.813V15.2338H114.902C115.211 14.529 115.933 14.0979 116.7 14.1603C117.294 14.1156 117.876 14.3434 118.281 14.7794C118.687 15.2154 118.873 15.8122 118.785 16.4014V20.3021H117.596V16.7C117.596 15.7317 117.175 15.2501 116.296 15.2501C115.893 15.2314 115.502 15.3895 115.226 15.683C114.949 15.9765 114.814 16.3761 114.857 16.7771V20.3022H113.668V14.2766Z" fill="#D2D3D4"/>
<path d="M125.503 12.7754V14.303H126.808V15.3047H125.503V18.4031C125.503 19.0343 125.763 19.3106 126.355 19.3106C126.506 19.3102 126.658 19.301 126.808 19.2832V20.2737C126.594 20.3119 126.378 20.3323 126.161 20.3345C124.839 20.3345 124.312 19.8693 124.312 18.7076V15.3046H123.355V14.303H124.312V12.7754H125.503Z" fill="#D2D3D4"/>
<path d="M128.434 11.9238H129.612V15.2444H129.706C130.03 14.5334 130.765 14.1018 131.544 14.165C132.134 14.1328 132.708 14.3657 133.11 14.8001C133.511 15.2345 133.698 15.8252 133.619 16.4113V20.3017H132.428V16.7047C132.428 15.7423 131.98 15.2548 131.14 15.2548C130.726 15.2209 130.319 15.3713 130.026 15.6658C129.734 15.9604 129.586 16.369 129.623 16.7825V20.3016H128.434L128.434 11.9238Z" fill="#D2D3D4"/>
<path d="M140.549 18.6752C140.216 19.8118 139.116 20.5462 137.938 20.4185C137.135 20.4397 136.362 20.1066 135.826 19.5077C135.29 18.9088 135.045 18.1045 135.155 17.3083C135.048 16.5099 135.292 15.7043 135.825 15.1004C136.358 14.4964 137.127 14.1534 137.933 14.1603C139.609 14.1603 140.621 15.3057 140.621 17.1979V17.6128H136.366V17.6794C136.328 18.1266 136.481 18.5688 136.787 18.8975C137.092 19.2261 137.522 19.4106 137.971 19.4057C138.553 19.4755 139.119 19.1869 139.404 18.6752L140.549 18.6752ZM136.366 16.7333H139.409C139.44 16.3244 139.296 15.9217 139.014 15.6244C138.731 15.3271 138.336 15.163 137.926 15.1724C137.511 15.1671 137.111 15.33 136.817 15.6238C136.523 15.9177 136.361 16.3178 136.366 16.7333Z" fill="#D2D3D4"/>
</g>
</g>
<defs>
<clipPath id="clip0_0_665">
<rect width="160.578" height="53.5261" fill="white" transform="translate(0.363281 0.632812)"/>
</clipPath>
<clipPath id="clip1_0_665">
<rect width="160.578" height="53.5261" fill="white" transform="translate(0.363281 0.632812)"/>
</clipPath>
</defs>
</svg>
