<svg width="182" height="55" viewBox="0 0 182 55" fill="none" xmlns="http://www.w3.org/2000/svg">
<g clip-path="url(#clip0_0_703)">
<g clip-path="url(#clip1_0_703)">
<g clip-path="url(#clip2_0_703)">
<path d="M174.42 0.652344H7.26288C3.57315 0.652344 0.582031 3.64346 0.582031 7.33319V47.4602C0.582031 51.15 3.57315 54.1411 7.26288 54.1411H174.42C178.11 54.1411 181.101 51.15 181.101 47.4602V7.33319C181.101 3.64346 178.11 0.652344 174.42 0.652344Z" fill="black"/>
<path d="M174.42 1.70114C175.91 1.70392 177.337 2.29742 178.389 3.35136C179.441 4.40531 180.032 5.83359 180.032 7.3227V47.4602C180.033 48.1985 179.889 48.9298 179.608 49.6123C179.326 50.2949 178.913 50.9154 178.392 51.4384C177.871 51.9613 177.252 52.3766 176.571 52.6604C175.889 52.9441 175.159 53.0909 174.42 53.0923H7.26288C6.52288 53.0937 5.78989 52.9489 5.10595 52.6664C4.42202 52.3838 3.8006 51.969 3.27734 51.4458C2.75408 50.9225 2.33928 50.3011 2.05673 49.6172C1.77418 48.9332 1.62945 48.2002 1.63083 47.4602V7.34368C1.62806 6.6028 1.77178 5.86868 2.05371 5.18353C2.33563 4.49838 2.75021 3.87572 3.27361 3.35135C3.79701 2.82698 4.4189 2.41124 5.10352 2.12804C5.78815 1.84483 6.522 1.69976 7.26288 1.70114H174.42ZM174.42 0.652344H7.26288C5.49175 0.660637 3.79568 1.36861 2.54427 2.62199C1.29286 3.87536 0.587547 5.57254 0.582031 7.34368L0.582031 47.4602C0.587563 49.2304 1.29321 50.9265 2.54492 52.1782C3.79662 53.4299 5.49271 54.1356 7.26288 54.1411H174.42C176.191 54.1356 177.887 53.4299 179.138 52.1782C180.39 50.9265 181.096 49.2304 181.101 47.4602V7.34368C181.099 5.57169 180.394 3.87292 179.142 2.61895C177.89 1.36498 176.192 0.657888 174.42 0.652344Z" fill="#A6A6A6"/>
<path d="M63.9924 14.3509C64.0094 14.8447 63.9251 15.3367 63.7448 15.7967C63.5644 16.2566 63.2917 16.6748 62.9436 17.0253C62.5647 17.4215 62.1061 17.7329 61.5981 17.9389C61.0902 18.145 60.5443 18.2411 59.9965 18.221C59.4432 18.2295 58.8939 18.1267 58.381 17.9189C57.8682 17.7111 57.4024 17.4024 57.0111 17.0111C56.6198 16.6199 56.3111 16.154 56.1033 15.6412C55.8955 15.1284 55.7928 14.579 55.8013 14.0258C55.7928 13.4725 55.8955 12.9232 56.1033 12.4103C56.3111 11.8975 56.6198 11.4317 57.0111 11.0404C57.4024 10.6491 57.8682 10.3404 58.381 10.1326C58.8939 9.92479 59.4432 9.82207 59.9965 9.83056C60.5624 9.83024 61.1225 9.9444 61.6431 10.1662C62.1257 10.3618 62.5539 10.6713 62.8911 11.0681L62.1885 11.7708C61.9206 11.4545 61.5836 11.2039 61.2036 11.0384C60.8235 10.8729 60.4105 10.797 59.9965 10.8164C59.5779 10.8164 59.1636 10.8998 58.7777 11.0618C58.3918 11.2239 58.0421 11.4613 57.7491 11.7601C57.4561 12.059 57.2256 12.4133 57.0713 12.8024C56.9169 13.1914 56.8417 13.6073 56.8501 14.0258C56.8417 14.4442 56.9169 14.8601 57.0713 15.2492C57.2256 15.6382 57.4561 15.9925 57.7491 16.2914C58.0421 16.5903 58.3918 16.8277 58.7777 16.9897C59.1636 17.1517 59.5779 17.2352 59.9965 17.2351C60.4156 17.2589 60.8351 17.1958 61.2285 17.0496C61.622 16.9033 61.981 16.6773 62.2828 16.3856C62.6962 15.942 62.9379 15.3656 62.9646 14.7599H60.0489V13.795H63.9295C63.9673 13.978 63.9884 14.1641 63.9924 14.3509Z" fill="#D2D3D4" stroke="#D2D3D4" stroke-width="0.2622" stroke-miterlimit="10"/>
<path d="M70.1503 11.0034H66.5005V13.5415H69.8042V14.5064H66.5005V17.0445H70.1503V18.0409H65.4727V10.0176H70.1503V11.0034Z" fill="#D2D3D4" stroke="#D2D3D4" stroke-width="0.2622" stroke-miterlimit="10"/>
<path d="M74.5027 18.0409H73.4539V11.0034H71.2305V10.0176H76.7472V11.0034H74.5027V18.0409Z" fill="#D2D3D4" stroke="#D2D3D4" stroke-width="0.2622" stroke-miterlimit="10"/>
<path d="M80.7305 18.0409V10.0176H81.7793V18.0409H80.7305Z" fill="#D2D3D4" stroke="#D2D3D4" stroke-width="0.2622" stroke-miterlimit="10"/>
<path d="M86.3308 18.0409H85.2821V11.0034H83.0586V10.0176H88.5753V11.0034H86.3308V18.0409Z" fill="#D2D3D4" stroke="#D2D3D4" stroke-width="0.2622" stroke-miterlimit="10"/>
<path d="M99.0127 17.0034C98.228 17.7752 97.1714 18.2077 96.0708 18.2077C94.9701 18.2077 93.9136 17.7752 93.1289 17.0034C92.7443 16.6103 92.4423 16.1443 92.2405 15.6328C92.0388 15.1212 91.9415 14.5745 91.9542 14.0248C91.9415 13.475 92.0388 12.9283 92.2405 12.4167C92.4423 11.9052 92.7443 11.4392 93.1289 11.0462C93.9136 10.2743 94.9701 9.8418 96.0708 9.8418C97.1714 9.8418 98.228 10.2743 99.0127 11.0462C99.4029 11.4366 99.7108 11.9014 99.9179 12.4131C100.125 12.9247 100.227 13.4728 100.219 14.0248C100.227 14.5766 100.124 15.1245 99.9171 15.6361C99.71 16.1477 99.4024 16.6126 99.0127 17.0034ZM93.926 16.3846C94.2115 16.6709 94.5506 16.8981 94.9241 17.0531C95.2975 17.2082 95.6979 17.288 96.1022 17.288C96.5066 17.288 96.907 17.2082 97.2804 17.0531C97.6538 16.8981 97.993 16.6709 98.2785 16.3846C98.5753 16.0801 98.8073 15.7187 98.9605 15.3222C99.1137 14.9256 99.185 14.5021 99.17 14.0772C99.185 13.6523 99.1137 13.2288 98.9605 12.8322C98.8073 12.4357 98.5753 12.0743 98.2785 11.7698C97.993 11.4835 97.6538 11.2563 97.2804 11.1013C96.907 10.9462 96.5066 10.8665 96.1022 10.8665C95.6979 10.8665 95.2975 10.9462 94.9241 11.1013C94.5506 11.2563 94.2115 11.4835 93.926 11.7698C93.6292 12.0743 93.3972 12.4357 93.244 12.8322C93.0908 13.2288 93.0195 13.6523 93.0345 14.0772C93.0195 14.5021 93.0908 14.9256 93.244 15.3222C93.3972 15.7187 93.6292 16.0801 93.926 16.3846Z" fill="#D2D3D4" stroke="#D2D3D4" stroke-width="0.2622" stroke-miterlimit="10"/>
<path d="M101.645 18.0409V10.0176H102.893L106.794 16.3104V14.7581V10.0176H107.843V18.0409H106.794L102.714 11.4964V13.0381V18.0409H101.645Z" fill="#D2D3D4" stroke="#D2D3D4" stroke-width="0.2622" stroke-miterlimit="10"/>
<path d="M91.691 29.7347C90.5655 29.7388 89.4665 30.0763 88.5327 30.7046C87.599 31.3329 86.8723 32.2238 86.4445 33.2648C86.0166 34.3058 85.9068 35.4502 86.1289 36.5535C86.3511 37.6568 86.8951 38.6696 87.6924 39.464C88.4897 40.2583 89.5044 40.7986 90.6086 41.0167C91.7127 41.2347 92.8567 41.1207 93.8961 40.6891C94.9355 40.2574 95.8237 39.5275 96.4486 38.5914C97.0734 37.6553 97.4069 36.5551 97.4069 35.4297C97.4198 34.6765 97.2805 33.9284 96.9976 33.2303C96.7146 32.5321 96.2937 31.8983 95.7601 31.3666C95.2264 30.8349 94.591 30.4163 93.8918 30.1359C93.1926 29.8555 92.4441 29.719 91.691 29.7347ZM91.691 38.8697C90.9998 38.9181 90.3101 38.7574 89.7116 38.4084C89.1131 38.0594 88.6335 37.5383 88.3353 36.913C88.037 36.2877 87.9339 35.587 88.0394 34.9023C88.1449 34.2175 88.4541 33.5804 88.9267 33.0738C89.3993 32.5672 90.0135 32.2146 90.6893 32.0619C91.365 31.9092 92.0711 31.9635 92.7157 32.2177C93.3602 32.4719 93.9132 32.9142 94.3029 33.4871C94.6925 34.0599 94.9007 34.7368 94.9003 35.4297C94.9214 35.8677 94.8545 36.3055 94.7036 36.7173C94.5527 37.129 94.3209 37.5064 94.0217 37.8271C93.7225 38.1477 93.3622 38.4052 92.9618 38.5843C92.5615 38.7634 92.1294 38.8604 91.691 38.8697ZM79.2417 29.7347C78.1158 29.7368 77.0158 30.0725 76.0806 30.6995C75.1455 31.3266 74.4171 32.2167 73.9877 33.2575C73.5583 34.2983 73.447 35.4431 73.6679 36.5471C73.8888 37.6511 74.4321 38.6649 75.2289 39.4603C76.0258 40.2557 77.0406 40.7971 78.145 41.016C79.2494 41.2349 80.394 41.1215 81.434 40.6901C82.474 40.2588 83.3628 39.5288 83.9881 38.5925C84.6134 37.6562 84.9472 36.5556 84.9472 35.4297C84.9585 34.6778 84.8186 33.9312 84.5358 33.2345C84.2529 32.5377 83.8329 31.9049 83.3007 31.3737C82.7685 30.8424 82.1349 30.4236 81.4376 30.142C80.7403 29.8605 79.9936 29.7219 79.2417 29.7347ZM79.2417 38.8697C78.5506 38.9181 77.8609 38.7574 77.2624 38.4084C76.6639 38.0594 76.1843 37.5383 75.886 36.913C75.5878 36.2877 75.4847 35.587 75.5902 34.9023C75.6956 34.2175 76.0048 33.5804 76.4774 33.0738C76.95 32.5672 77.5642 32.2146 78.24 32.0619C78.9158 31.9092 79.6219 31.9635 80.2664 32.2177C80.9109 32.4719 81.464 32.9142 81.8536 33.4871C82.2433 34.0599 82.4514 34.7368 82.451 35.4297C82.4721 35.8677 82.4053 36.3055 82.2544 36.7173C82.1035 37.129 81.8716 37.5064 81.5725 37.8271C81.2733 38.1477 80.9129 38.4052 80.5126 38.5843C80.1123 38.7634 79.6802 38.8604 79.2417 38.8697ZM64.4222 31.5281V33.9404H70.2011C70.1152 35.0709 69.6495 36.1391 68.8796 36.9714C68.302 37.5623 67.6068 38.0253 66.839 38.3307C66.0712 38.636 65.2478 38.7767 64.4222 38.7439C62.7198 38.7439 61.0872 38.0676 59.8835 36.8639C58.6798 35.6602 58.0035 34.0275 58.0035 32.3252C58.0035 30.6229 58.6798 28.9903 59.8835 27.7865C61.0872 26.5828 62.7198 25.9066 64.4222 25.9066C66.0306 25.8743 67.5868 26.4773 68.7537 27.5846L70.4528 25.8856C69.6576 25.0966 68.7124 24.4748 67.6731 24.0569C66.6338 23.639 65.5212 23.4334 64.4012 23.4524C62.0591 23.4524 59.8129 24.3828 58.1568 26.0389C56.5007 27.695 55.5703 29.9412 55.5703 32.2833C55.5703 34.6254 56.5007 36.8715 58.1568 38.5276C59.8129 40.1838 62.0591 41.1141 64.4012 41.1141C65.5458 41.162 66.6875 40.966 67.7507 40.5393C68.8138 40.1126 69.7742 39.4649 70.5681 38.639C71.9796 37.1014 72.7326 35.0721 72.6657 32.986C72.6709 32.4832 72.6288 31.981 72.5399 31.4862L64.4222 31.5281ZM125.011 33.395C124.682 32.3543 124.036 31.4423 123.164 30.7861C122.291 30.13 121.236 29.7624 120.145 29.7347C119.413 29.7393 118.69 29.8923 118.019 30.1843C117.349 30.4764 116.744 30.9014 116.242 31.4337C115.74 31.966 115.351 32.5946 115.099 33.2814C114.847 33.9682 114.737 34.699 114.775 35.4297C114.759 36.1778 114.895 36.9214 115.173 37.616C115.451 38.3106 115.866 38.9421 116.394 39.4727C116.922 40.0033 117.551 40.4221 118.244 40.7041C118.937 40.9861 119.68 41.1256 120.428 41.1141C121.363 41.1195 122.285 40.8922 123.111 40.4529C123.937 40.0135 124.64 39.3757 125.158 38.597L123.228 37.2965C122.939 37.7795 122.528 38.1786 122.037 38.4544C121.546 38.7303 120.991 38.8734 120.428 38.8697C119.848 38.895 119.275 38.7442 118.782 38.4372C118.29 38.1302 117.902 37.6813 117.67 37.1497L125.273 34.0033L125.011 33.395ZM117.261 35.2618C117.215 34.4288 117.502 33.6117 118.058 32.9902C118.615 32.3687 119.396 31.9937 120.229 31.9476C120.658 31.9192 121.087 32.0186 121.46 32.2332C121.833 32.4479 122.135 32.7682 122.326 33.1538L117.261 35.2618ZM111.073 40.7785H113.569V24.0502H111.073V40.7785ZM106.982 31.0247H106.899C106.518 30.6109 106.054 30.2828 105.536 30.0622C105.019 29.8416 104.461 29.7335 103.899 29.7452C102.432 29.8082 101.046 30.4351 100.031 31.4953C99.0153 32.5554 98.4483 33.9668 98.4483 35.4349C98.4483 36.903 99.0153 38.3144 100.031 39.3745C101.046 40.4347 102.432 41.0616 103.899 41.1246C104.462 41.137 105.021 41.0282 105.539 40.8056C106.056 40.583 106.52 40.2519 106.899 39.8346H106.982V40.6527C106.982 42.8237 105.818 43.9879 103.941 43.9879C103.317 43.9727 102.711 43.7721 102.201 43.4116C101.691 43.0511 101.3 42.5471 101.078 41.9637L98.9067 42.8656C99.3133 43.8656 100.01 44.7208 100.908 45.3209C101.805 45.921 102.861 46.2384 103.941 46.2323C106.878 46.2323 109.353 44.5018 109.353 40.3066V30.0808H106.982V31.0247ZM104.119 38.8802C103.687 38.8668 103.261 38.7672 102.868 38.5873C102.474 38.4073 102.12 38.1505 101.827 37.8321C101.534 37.5136 101.308 37.1399 101.161 36.7328C101.014 36.3256 100.95 35.8933 100.973 35.4611C100.949 35.026 101.011 34.5904 101.157 34.1796C101.303 33.7689 101.528 33.3911 101.821 33.0682C102.114 32.7453 102.467 32.4837 102.862 32.2985C103.256 32.1134 103.684 32.0084 104.119 31.9896C104.548 32.012 104.969 32.1204 105.355 32.3083C105.742 32.4963 106.087 32.76 106.37 33.0838C106.652 33.4076 106.867 33.7849 107.001 34.1932C107.135 34.6016 107.186 35.0328 107.15 35.4611C107.186 35.8863 107.135 36.3143 107 36.7191C106.865 37.1239 106.65 37.497 106.366 37.8159C106.083 38.1347 105.737 38.3925 105.351 38.5737C104.965 38.7549 104.546 38.8556 104.119 38.8697V38.8802ZM136.716 24.0502H130.738V40.768H133.234V34.4752H136.716C137.46 34.5812 138.217 34.5262 138.938 34.3139C139.658 34.1016 140.325 33.7369 140.892 33.2447C141.46 32.7524 141.915 32.144 142.226 31.4606C142.538 30.7772 142.7 30.0349 142.7 29.2837C142.7 28.5325 142.538 27.7901 142.226 27.1068C141.915 26.4234 141.46 25.815 140.892 25.3227C140.325 24.8304 139.658 24.4658 138.938 24.2535C138.217 24.0412 137.46 23.9862 136.716 24.0921V24.0502ZM136.779 32.105H133.234V26.3785H136.779C137.538 26.3785 138.266 26.6802 138.803 27.2171C139.34 27.7541 139.642 28.4824 139.642 29.2417C139.642 30.0011 139.34 30.7294 138.803 31.2663C138.266 31.8033 137.538 32.105 136.779 32.105ZM152.207 29.7032C151.295 29.6494 150.388 29.8629 149.596 30.3175C148.804 30.7721 148.162 31.448 147.749 32.2623L149.962 33.1957C150.182 32.7901 150.515 32.4578 150.922 32.2397C151.328 32.0216 151.789 31.9274 152.249 31.9686C152.881 31.9071 153.512 32.0989 154.004 32.5019C154.495 32.9049 154.807 33.4863 154.871 34.1187V34.2865C154.068 33.8656 153.176 33.646 152.27 33.6467C149.878 33.6467 147.445 34.9577 147.445 37.4119C147.469 37.9322 147.597 38.4424 147.823 38.9117C148.049 39.381 148.367 39.7997 148.759 40.1427C149.151 40.4857 149.608 40.7458 150.104 40.9073C150.599 41.0688 151.121 41.1285 151.64 41.0827C152.256 41.1068 152.868 40.9695 153.414 40.6843C153.961 40.3992 154.423 39.9761 154.755 39.457H154.839V40.7471H157.251V34.3284C157.283 31.3603 155.059 29.7032 152.207 29.7032ZM151.903 38.8697C151.084 38.8697 149.941 38.4607 149.941 37.4538C149.941 36.1638 151.368 35.6604 152.595 35.6604C153.39 35.6411 154.177 35.8367 154.871 36.2267C154.777 36.9509 154.425 37.617 153.88 38.1026C153.335 38.5882 152.633 38.8606 151.903 38.8697ZM166.051 30.0703L163.146 37.3594L160.178 30.1122H157.493L161.94 40.2436L159.401 45.8757H162.013L168.872 30.1437L166.051 30.0703ZM143.575 40.768H146.071V24.0502H143.575V40.768Z" fill="#D2D3D4"/>
<path d="M14.5338 10.7331C14.0953 11.2569 13.8739 11.9286 13.915 12.6104V42.1865C13.8739 42.8684 14.0953 43.5401 14.5338 44.0639L14.6387 44.1583L31.2097 27.5978V27.1992L14.6387 10.6387L14.5338 10.7331Z" fill="url(#paint0_linear_0_703)"/>
<path d="M36.7237 33.166L31.207 27.5969V27.1983L36.7237 21.6816L36.8496 21.7551L43.3941 25.4678C45.2609 26.5166 45.2609 28.2681 43.3941 29.3274L36.8496 33.0506L36.7237 33.166Z" fill="url(#paint1_linear_0_703)"/>
<path d="M36.8497 33.0495L31.2072 27.3965L14.5312 44.0619C14.9124 44.397 15.3985 44.5887 15.9058 44.604C16.4131 44.6194 16.9099 44.4573 17.3106 44.1458L36.8497 33.0495Z" fill="url(#paint2_linear_0_703)"/>
<path d="M36.848 21.7555L17.3613 10.6487C16.9607 10.3372 16.4639 10.1751 15.9566 10.1904C15.4493 10.2058 14.9632 10.3975 14.582 10.7326L31.2055 27.398L36.848 21.7555Z" fill="url(#paint3_linear_0_703)"/>
<path opacity="0.2" d="M36.7222 32.9238L17.3613 43.9467C16.9759 44.2368 16.5066 44.3938 16.0241 44.3938C15.5417 44.3938 15.0723 44.2368 14.6869 43.9467L14.582 44.0411L14.6869 44.1355C15.0716 44.4273 15.5413 44.5852 16.0241 44.5852C16.507 44.5852 16.9766 44.4273 17.3613 44.1355L36.848 33.0497L36.7222 32.9238Z" fill="black"/>
<path opacity="0.12" d="M14.5338 43.8742C14.0966 43.3456 13.8755 42.6712 13.915 41.9863V42.1856C13.8739 42.8674 14.0953 43.5392 14.5338 44.0629L14.6387 43.9686L14.5338 43.8742Z" fill="black"/>
<path opacity="0.12" d="M43.393 29.1375L36.7227 32.9237L36.8485 33.0495L43.393 29.3263C43.7777 29.1599 44.1103 28.8928 44.3558 28.5532C44.6013 28.2135 44.7506 27.8139 44.7879 27.3965C44.7079 27.7756 44.54 28.1307 44.2977 28.4331C44.0555 28.7354 43.7456 28.9767 43.393 29.1375Z" fill="black"/>
<path opacity="0.25" d="M17.3643 10.8485L43.3955 25.668C43.7472 25.827 44.0568 26.0665 44.2991 26.3671C44.5413 26.6677 44.7096 27.021 44.7904 27.3985C44.7542 26.9808 44.6053 26.5806 44.3597 26.2408C44.114 25.901 43.7808 25.6341 43.3955 25.4687L17.3643 10.6492C15.4974 9.60039 13.9662 10.4709 13.9662 12.6104V12.8097C13.9137 10.6702 15.445 9.78918 17.3643 10.8485Z" fill="#D2D3D4"/>
</g>
</g>
</g>
<defs>
<linearGradient id="paint0_linear_0_703" x1="29.7309" y1="12.2958" x2="7.29707" y2="34.7401" gradientUnits="userSpaceOnUse">
<stop stop-color="#00A0FF"/>
<stop offset="0.01" stop-color="#00A1FF"/>
<stop offset="0.26" stop-color="#00BEFF"/>
<stop offset="0.51" stop-color="#00D2FF"/>
<stop offset="0.76" stop-color="#00DFFF"/>
<stop offset="1" stop-color="#00E3FF"/>
</linearGradient>
<linearGradient id="paint1_linear_0_703" x1="45.8273" y1="27.3976" x2="13.4718" y2="27.3976" gradientUnits="userSpaceOnUse">
<stop stop-color="#FFE000"/>
<stop offset="0.41" stop-color="#FFBD00"/>
<stop offset="0.78" stop-color="#FFA500"/>
<stop offset="1" stop-color="#FF9C00"/>
</linearGradient>
<linearGradient id="paint2_linear_0_703" x1="33.7767" y1="30.459" x2="3.35106" y2="60.8951" gradientUnits="userSpaceOnUse">
<stop stop-color="#FF3A44"/>
<stop offset="1" stop-color="#C31162"/>
</linearGradient>
<linearGradient id="paint3_linear_0_703" x1="10.3344" y1="0.884369" x2="23.9268" y2="14.4768" gradientUnits="userSpaceOnUse">
<stop stop-color="#32A071"/>
<stop offset="0.07" stop-color="#2DA771"/>
<stop offset="0.48" stop-color="#15CF74"/>
<stop offset="0.8" stop-color="#06E775"/>
<stop offset="1" stop-color="#00F076"/>
</linearGradient>
<clipPath id="clip0_0_703">
<rect width="180.519" height="53.5261" fill="white" transform="translate(0.582031 0.632812)"/>
</clipPath>
<clipPath id="clip1_0_703">
<rect width="180.519" height="53.5261" fill="white" transform="translate(0.582031 0.632812)"/>
</clipPath>
<clipPath id="clip2_0_703">
<rect width="180.519" height="53.5261" fill="white" transform="translate(0.582031 0.632812)"/>
</clipPath>
</defs>
</svg>
