<svg width="133" height="133" viewBox="0 0 133 133" fill="none" xmlns="http://www.w3.org/2000/svg">
<rect x="1" y="1" width="131" height="131" rx="65.5" fill="#0C181C" stroke="url(#paint0_linear_2215_25)" stroke-width="2"/>
<rect x="8" y="8" width="117" height="117" rx="58.5" stroke="url(#paint1_linear_2215_25)" stroke-width="4"/>
<circle cx="66.5" cy="66.5" r="54.5" fill="white"/>
<path d="M88.0216 95.1101L88.21 94.1509H91.8072L91.7386 94.4763C91.7158 94.6019 91.7443 94.7161 91.8243 94.8189C91.9042 94.9103 92.007 94.9559 92.1326 94.9559H96.4321C96.5235 94.9559 96.6034 94.9274 96.6719 94.8703C96.7518 94.8018 96.8032 94.7218 96.8261 94.6305L97.0659 93.4314C97.0887 93.3058 97.0602 93.1973 96.9802 93.106C96.9003 93.0032 96.7975 92.9518 96.6719 92.9518H91.122C90.7794 92.9518 90.4596 92.8776 90.1627 92.7291C89.8658 92.5807 89.6203 92.3865 89.4262 92.1467C89.232 91.9069 89.0893 91.6271 88.9979 91.3074C88.918 90.9876 88.9123 90.6565 88.9808 90.3139L89.5289 87.5218C89.6317 87.0079 89.883 86.5854 90.2826 86.2542C90.6937 85.923 91.1619 85.7574 91.6872 85.7574H99.601C99.9436 85.7574 100.263 85.8317 100.56 85.9801C100.857 86.1286 101.103 86.3227 101.297 86.5625C101.491 86.8023 101.634 87.0821 101.725 87.4019C101.816 87.7102 101.828 88.0357 101.759 88.3782L101.554 89.3546H97.9566L98.0251 89.0292C98.048 88.9035 98.0194 88.7951 97.9395 88.7037C97.8595 88.6009 97.7568 88.5495 97.6312 88.5495H93.246C93.0405 88.5495 92.9091 88.658 92.8521 88.875L92.6636 89.8685C92.6408 89.9941 92.6693 90.1083 92.7493 90.2111C92.8292 90.3025 92.932 90.3481 93.0576 90.3481H97.5969C97.9395 90.3481 98.2193 90.3481 98.4362 90.3481L98.7617 90.3653C99.0929 90.3881 99.3898 90.4795 99.6524 90.6393C99.9265 90.7878 100.155 90.9819 100.338 91.2217C100.52 91.4615 100.652 91.7356 100.732 92.0439C100.812 92.3409 100.817 92.6549 100.749 92.9861L100.149 95.9837C100.046 96.4976 99.7895 96.9201 99.3784 97.2513C98.9787 97.5825 98.5162 97.748 97.9909 97.748H90.1627C89.8201 97.748 89.5004 97.6738 89.2035 97.5254C88.9066 97.3769 88.6611 97.1828 88.4669 96.943C88.2728 96.7031 88.13 96.4234 88.0387 96.1036C87.9587 95.7839 87.953 95.4527 88.0216 95.1101Z" fill="#0C181C"/>
<path d="M73.753 95.1101L73.9414 94.1509H77.5386L77.4701 94.4763C77.4472 94.6019 77.4758 94.7161 77.5557 94.8189C77.6357 94.9103 77.7384 94.9559 77.8641 94.9559H82.1635C82.2549 94.9559 82.3348 94.9274 82.4034 94.8703C82.4833 94.8018 82.5347 94.7218 82.5575 94.6305L82.7973 93.4314C82.8202 93.3058 82.7916 93.1973 82.7117 93.106C82.6317 93.0032 82.529 92.9518 82.4034 92.9518H76.8534C76.5108 92.9518 76.1911 92.8776 75.8942 92.7291C75.5973 92.5807 75.3517 92.3865 75.1576 92.1467C74.9635 91.9069 74.8207 91.6271 74.7294 91.3074C74.6494 90.9876 74.6437 90.6565 74.7122 90.3139L75.2604 87.5218C75.3632 87.0079 75.6144 86.5854 76.0141 86.2542C76.4252 85.923 76.8934 85.7574 77.4187 85.7574H85.3325C85.6751 85.7574 85.9948 85.8317 86.2917 85.9801C86.5886 86.1286 86.8342 86.3227 87.0283 86.5625C87.2224 86.8023 87.3652 87.0821 87.4565 87.4019C87.5479 87.7102 87.5593 88.0357 87.4908 88.3782L87.2852 89.3546H83.6881L83.7566 89.0292C83.7794 88.9035 83.7509 88.7951 83.6709 88.7037C83.591 88.6009 83.4882 88.5495 83.3626 88.5495H78.9775C78.7719 88.5495 78.6406 88.658 78.5835 88.875L78.3951 89.8685C78.3722 89.9941 78.4008 90.1083 78.4807 90.2111C78.5607 90.3025 78.6634 90.3481 78.789 90.3481H83.3283C83.6709 90.3481 83.9507 90.3481 84.1677 90.3481L84.4931 90.3653C84.8243 90.3881 85.1212 90.4795 85.3839 90.6393C85.6579 90.7878 85.8863 90.9819 86.069 91.2217C86.2518 91.4615 86.3831 91.7356 86.463 92.0439C86.543 92.3409 86.5487 92.6549 86.4802 92.9861L85.8806 95.9837C85.7778 96.4976 85.5209 96.9201 85.1098 97.2513C84.7101 97.5825 84.2476 97.748 83.7223 97.748H75.8942C75.5516 97.748 75.2318 97.6738 74.9349 97.5254C74.638 97.3769 74.3925 97.1828 74.1984 96.943C74.0042 96.7031 73.8615 96.4234 73.7701 96.1036C73.6902 95.7839 73.6845 95.4527 73.753 95.1101Z" fill="#0C181C"/>
<path d="M68.1357 94.3564H62.9454L62.2603 97.748H58.6631L60.7357 87.3676C60.8271 86.888 61.0555 86.4997 61.4209 86.2028C61.7978 85.9059 62.226 85.7574 62.7056 85.7574H71.0134C71.3331 85.7574 71.6243 85.826 71.887 85.963C72.1611 86.0886 72.3837 86.2656 72.555 86.494C72.7378 86.711 72.8691 86.9622 72.949 87.2477C73.029 87.5332 73.0347 87.8301 72.9661 88.1384L71.0477 97.748H67.4505L68.1357 94.3564ZM63.4936 91.5472H68.7009L69.1977 89.0292C69.2205 88.9035 69.192 88.7951 69.112 88.7037C69.0321 88.6009 68.9293 88.5495 68.8037 88.5495H64.4357C64.2073 88.5495 64.076 88.658 64.0417 88.875L63.4936 91.5472Z" fill="#0C181C"/>
<path d="M47.779 85.7574H51.7701L49.9373 94.9559H57.3714L56.8062 97.748H45.3809L47.779 85.7574Z" fill="#0C181C"/>
<path d="M33.2717 88.5495L35.2758 89.1491L34.2138 94.4763C34.191 94.6019 34.2195 94.7161 34.2995 94.8189C34.3794 94.9103 34.4822 94.9559 34.6078 94.9559H39.3012C39.5068 94.9559 39.6381 94.8475 39.6952 94.6305L39.8665 93.7569H43.4637L42.9841 96.1379C42.8927 96.6175 42.6643 97.0058 42.2989 97.3027C41.9335 97.5996 41.5109 97.748 41.0313 97.748H32.1069C31.8328 97.748 31.5759 97.6909 31.3361 97.5767C31.0963 97.4625 30.8964 97.3084 30.7365 97.1142C30.5767 96.9087 30.4625 96.6803 30.394 96.4291C30.3254 96.1778 30.3197 95.9152 30.3768 95.6411L32.0384 87.3676C32.1297 86.888 32.3581 86.4997 32.7236 86.2028C33.089 85.9059 33.5115 85.7574 33.9911 85.7574H42.71C43.0183 85.7574 43.3038 85.826 43.5665 85.963C43.8405 86.0886 44.0689 86.2656 44.2516 86.494C44.4344 86.711 44.5657 86.9622 44.6456 87.2477C44.7256 87.5332 44.7313 87.8301 44.6628 88.1384L44.3373 89.7486H40.7401L40.8943 89.0292C40.9171 88.9035 40.8886 88.7951 40.8086 88.7037C40.7287 88.6009 40.6259 88.5495 40.5003 88.5495H33.2717Z" fill="#0C181C"/>
<path d="M84.3668 27.0312C85.3946 27.0312 86.3462 27.2596 87.2217 27.7164C88.1353 28.1351 88.8966 28.7252 89.5056 29.4865C90.1147 30.2097 90.5524 31.0471 90.8189 31.9988C91.0854 32.9504 91.1044 33.9401 90.876 34.9679L89.7911 40.3351H77.8005L78.3144 37.937C78.3906 37.5183 78.2954 37.1566 78.0289 36.8521C77.7625 36.5095 77.4199 36.3382 77.0012 36.3382H61.0708C60.7663 36.3382 60.4808 36.4524 60.2143 36.6808C59.986 36.8711 59.8337 37.1186 59.7576 37.4231L56.0462 56.0942C55.9701 56.5129 56.0652 56.8935 56.3317 57.2361C56.5981 57.5406 56.9407 57.6929 57.3594 57.6929H73.0043C73.6895 57.6929 74.1272 57.3313 74.3176 56.608L74.8885 53.696H86.8791L85.2804 61.6327C84.9759 63.2314 84.2146 64.5256 82.9965 65.5153C81.7784 66.505 80.37 66.9999 78.7712 66.9999H49.0231C48.1096 66.9999 47.2531 66.8096 46.4537 66.4289C45.6544 66.0482 44.9882 65.5344 44.4553 64.8872C43.9224 64.2021 43.5417 63.4408 43.3133 62.6033C43.0849 61.7659 43.0659 60.8904 43.2562 59.9768L48.7947 32.3985C49.0993 30.7997 49.8606 29.5055 51.0787 28.5158C52.2968 27.5261 53.7052 27.0312 55.3039 27.0312H84.3668Z" fill="#0C181C"/>
<defs>
<linearGradient id="paint0_linear_2215_25" x1="66.5" y1="2" x2="66.5" y2="131" gradientUnits="userSpaceOnUse">
<stop stop-color="#8B0E0E"/>
<stop offset="1" stop-color="#FA4222"/>
</linearGradient>
<linearGradient id="paint1_linear_2215_25" x1="66.5" y1="10" x2="66.5" y2="123" gradientUnits="userSpaceOnUse">
<stop stop-color="#8B0E0E"/>
<stop offset="1" stop-color="#FA4222"/>
</linearGradient>
</defs>
</svg>
