<svg width="133" height="133" viewBox="0 0 133 133" fill="none" xmlns="http://www.w3.org/2000/svg">
<rect x="1" y="1" width="131" height="131" rx="65.5" fill="#0C181C" stroke="url(#paint0_linear_2215_60)" stroke-width="2"/>
<rect x="8" y="8" width="117" height="117" rx="58.5" stroke="url(#paint1_linear_2215_60)" stroke-width="4"/>
<circle cx="66.5" cy="66.5" r="53.5" fill="white"/>
<path d="M88.0216 93.3621L88.21 92.4028H91.8072L91.7386 92.7283C91.7158 92.8539 91.7443 92.9681 91.8243 93.0709C91.9042 93.1622 92.007 93.2079 92.1326 93.2079H96.4321C96.5235 93.2079 96.6034 93.1793 96.6719 93.1222C96.7518 93.0537 96.8032 92.9738 96.8261 92.8824L97.0659 91.6834C97.0887 91.5578 97.0602 91.4493 96.9802 91.3579C96.9003 91.2551 96.7975 91.2038 96.6719 91.2038H91.122C90.7794 91.2038 90.4596 91.1295 90.1627 90.9811C89.8658 90.8326 89.6203 90.6385 89.4262 90.3987C89.232 90.1589 89.0893 89.8791 88.9979 89.5593C88.918 89.2396 88.9123 88.9084 88.9808 88.5658L89.5289 85.7737C89.6317 85.2598 89.883 84.8373 90.2826 84.5062C90.6937 84.175 91.1619 84.0094 91.6872 84.0094H99.601C99.9436 84.0094 100.263 84.0836 100.56 84.2321C100.857 84.3805 101.103 84.5747 101.297 84.8145C101.491 85.0543 101.634 85.3341 101.725 85.6538C101.816 85.9622 101.828 86.2876 101.759 86.6302L101.554 87.6066H97.9566L98.0251 87.2811C98.048 87.1555 98.0194 87.047 97.9395 86.9557C97.8595 86.8529 97.7568 86.8015 97.6312 86.8015H93.246C93.0405 86.8015 92.9091 86.91 92.8521 87.127L92.6636 88.1205C92.6408 88.2461 92.6693 88.3603 92.7493 88.463C92.8292 88.5544 92.932 88.6001 93.0576 88.6001H97.5969C97.9395 88.6001 98.2193 88.6001 98.4362 88.6001L98.7617 88.6172C99.0929 88.6401 99.3898 88.7314 99.6524 88.8913C99.9265 89.0397 100.155 89.2339 100.338 89.4737C100.52 89.7135 100.652 89.9876 100.732 90.2959C100.812 90.5928 100.817 90.9068 100.749 91.238L100.149 94.2357C100.046 94.7495 99.7895 95.1721 99.3784 95.5032C98.9787 95.8344 98.5162 96 97.9909 96H90.1627C89.8201 96 89.5004 95.9258 89.2035 95.7773C88.9066 95.6289 88.6611 95.4347 88.4669 95.1949C88.2728 94.9551 88.13 94.6753 88.0387 94.3556C87.9587 94.0358 87.953 93.7046 88.0216 93.3621Z" fill="#0C181C"/>
<path d="M73.753 93.3621L73.9414 92.4028H77.5386L77.4701 92.7283C77.4472 92.8539 77.4758 92.9681 77.5557 93.0709C77.6357 93.1622 77.7384 93.2079 77.8641 93.2079H82.1635C82.2549 93.2079 82.3348 93.1793 82.4034 93.1222C82.4833 93.0537 82.5347 92.9738 82.5575 92.8824L82.7973 91.6834C82.8202 91.5578 82.7916 91.4493 82.7117 91.3579C82.6317 91.2551 82.529 91.2038 82.4034 91.2038H76.8534C76.5108 91.2038 76.1911 91.1295 75.8942 90.9811C75.5973 90.8326 75.3517 90.6385 75.1576 90.3987C74.9635 90.1589 74.8207 89.8791 74.7294 89.5593C74.6494 89.2396 74.6437 88.9084 74.7122 88.5658L75.2604 85.7737C75.3632 85.2598 75.6144 84.8373 76.0141 84.5062C76.4252 84.175 76.8934 84.0094 77.4187 84.0094H85.3325C85.6751 84.0094 85.9948 84.0836 86.2917 84.2321C86.5886 84.3805 86.8342 84.5747 87.0283 84.8145C87.2224 85.0543 87.3652 85.3341 87.4565 85.6538C87.5479 85.9622 87.5593 86.2876 87.4908 86.6302L87.2852 87.6066H83.6881L83.7566 87.2811C83.7794 87.1555 83.7509 87.047 83.6709 86.9557C83.591 86.8529 83.4882 86.8015 83.3626 86.8015H78.9775C78.7719 86.8015 78.6406 86.91 78.5835 87.127L78.3951 88.1205C78.3722 88.2461 78.4008 88.3603 78.4807 88.463C78.5607 88.5544 78.6634 88.6001 78.789 88.6001H83.3283C83.6709 88.6001 83.9507 88.6001 84.1677 88.6001L84.4931 88.6172C84.8243 88.6401 85.1212 88.7314 85.3839 88.8913C85.6579 89.0397 85.8863 89.2339 86.069 89.4737C86.2518 89.7135 86.3831 89.9876 86.463 90.2959C86.543 90.5928 86.5487 90.9068 86.4802 91.238L85.8806 94.2357C85.7778 94.7495 85.5209 95.1721 85.1098 95.5032C84.7101 95.8344 84.2476 96 83.7223 96H75.8942C75.5516 96 75.2318 95.9258 74.9349 95.7773C74.638 95.6289 74.3925 95.4347 74.1984 95.1949C74.0042 94.9551 73.8615 94.6753 73.7701 94.3556C73.6902 94.0358 73.6845 93.7046 73.753 93.3621Z" fill="#0C181C"/>
<path d="M68.1357 92.6084H62.9454L62.2603 96H58.6631L60.7357 85.6196C60.8271 85.1399 61.0555 84.7517 61.4209 84.4548C61.7978 84.1579 62.226 84.0094 62.7056 84.0094H71.0134C71.3331 84.0094 71.6243 84.0779 71.887 84.215C72.1611 84.3406 72.3837 84.5176 72.555 84.746C72.7378 84.9629 72.8691 85.2142 72.949 85.4997C73.029 85.7851 73.0347 86.0821 72.9661 86.3904L71.0477 96H67.4505L68.1357 92.6084ZM63.4936 89.7991H68.7009L69.1977 87.2811C69.2205 87.1555 69.192 87.047 69.112 86.9557C69.0321 86.8529 68.9293 86.8015 68.8037 86.8015H64.4357C64.2073 86.8015 64.076 86.91 64.0417 87.127L63.4936 89.7991Z" fill="#0C181C"/>
<path d="M47.779 84.0094H51.7701L49.9373 93.2079H57.3714L56.8062 96H45.3809L47.779 84.0094Z" fill="#0C181C"/>
<path d="M33.2717 86.8015L35.2758 87.401L34.2138 92.7283C34.191 92.8539 34.2195 92.9681 34.2995 93.0709C34.3794 93.1622 34.4822 93.2079 34.6078 93.2079H39.3012C39.5068 93.2079 39.6381 93.0994 39.6952 92.8824L39.8665 92.0088H43.4637L42.9841 94.3898C42.8927 94.8694 42.6643 95.2577 42.2989 95.5546C41.9335 95.8515 41.5109 96 41.0313 96H32.1069C31.8328 96 31.5759 95.9429 31.3361 95.8287C31.0963 95.7145 30.8964 95.5603 30.7365 95.3662C30.5767 95.1606 30.4625 94.9323 30.394 94.681C30.3254 94.4298 30.3197 94.1671 30.3768 93.8931L32.0384 85.6196C32.1297 85.1399 32.3581 84.7517 32.7236 84.4548C33.089 84.1579 33.5115 84.0094 33.9911 84.0094H42.71C43.0183 84.0094 43.3038 84.0779 43.5665 84.215C43.8405 84.3406 44.0689 84.5176 44.2516 84.746C44.4344 84.9629 44.5657 85.2142 44.6456 85.4997C44.7256 85.7851 44.7313 86.0821 44.6628 86.3904L44.3373 88.0006H40.7401L40.8943 87.2811C40.9171 87.1555 40.8886 87.047 40.8086 86.9557C40.7287 86.8529 40.6259 86.8015 40.5003 86.8015H33.2717Z" fill="#0C181C"/>
<path d="M74.7173 58.6946H57.4166L55.1327 70H43.1421L50.051 35.3986C50.3555 33.7998 51.1168 32.5056 52.3349 31.5159C53.591 30.5262 55.0185 30.0314 56.6172 30.0314H84.3098C85.3756 30.0314 86.3463 30.2598 87.2218 30.7165C88.1353 31.1353 88.8776 31.7253 89.4486 32.4866C90.0576 33.2098 90.4954 34.0473 90.7619 34.9989C91.0283 35.9505 91.0473 36.9402 90.819 37.968L84.424 70H72.4334L74.7173 58.6946ZM59.2437 49.3305H76.6015L78.2574 40.9371C78.3335 40.5184 78.2384 40.1568 77.9719 39.8522C77.7054 39.5096 77.3628 39.3384 76.9441 39.3384H62.3841C61.6228 39.3384 61.1851 39.7 61.0709 40.4232L59.2437 49.3305Z" fill="#0C181C"/>
<defs>
<linearGradient id="paint0_linear_2215_60" x1="66.5" y1="2" x2="66.5" y2="131" gradientUnits="userSpaceOnUse">
<stop stop-color="#00E3FF"/>
<stop offset="1" stop-color="#3974AB"/>
</linearGradient>
<linearGradient id="paint1_linear_2215_60" x1="66.5" y1="10" x2="66.5" y2="123" gradientUnits="userSpaceOnUse">
<stop stop-color="#00E3FF"/>
<stop offset="1" stop-color="#3974AB"/>
</linearGradient>
</defs>
</svg>
