<svg width="133" height="133" viewBox="0 0 133 133" fill="none" xmlns="http://www.w3.org/2000/svg">
<rect x="1" y="1" width="131" height="131" rx="65.5" fill="#0C181C" stroke="url(#paint0_linear_2215_35)" stroke-width="2"/>
<rect x="8" y="8" width="117" height="117" rx="58.5" stroke="url(#paint1_linear_2215_35)" stroke-width="4"/>
<circle cx="66.5" cy="66.5" r="54.5" fill="white"/>
<path d="M87.8927 93.3621L88.0811 92.4028H91.6782L91.6097 92.7283C91.5869 92.8539 91.6154 92.9681 91.6954 93.0709C91.7753 93.1622 91.8781 93.2079 92.0037 93.2079H96.3032C96.3945 93.2079 96.4745 93.1793 96.543 93.1222C96.6229 93.0537 96.6743 92.9738 96.6972 92.8824L96.937 91.6834C96.9598 91.5578 96.9313 91.4493 96.8513 91.3579C96.7714 91.2551 96.6686 91.2038 96.543 91.2038H90.9931C90.6505 91.2038 90.3307 91.1295 90.0338 90.9811C89.7369 90.8326 89.4914 90.6385 89.2973 90.3987C89.1031 90.1589 88.9604 89.8791 88.869 89.5593C88.7891 89.2396 88.7834 88.9084 88.8519 88.5658L89.4 85.7737C89.5028 85.2598 89.754 84.8373 90.1537 84.5062C90.5648 84.175 91.033 84.0094 91.5583 84.0094H99.4721C99.8147 84.0094 100.134 84.0836 100.431 84.2321C100.728 84.3805 100.974 84.5747 101.168 84.8145C101.362 85.0543 101.505 85.3341 101.596 85.6538C101.688 85.9622 101.699 86.2876 101.63 86.6302L101.425 87.6066H97.8277L97.8962 87.2811C97.9191 87.1555 97.8905 87.047 97.8106 86.9557C97.7306 86.8529 97.6279 86.8015 97.5023 86.8015H93.1171C92.9116 86.8015 92.7802 86.91 92.7231 87.127L92.5347 88.1205C92.5119 88.2461 92.5404 88.3603 92.6204 88.463C92.7003 88.5544 92.8031 88.6001 92.9287 88.6001H97.468C97.8106 88.6001 98.0904 88.6001 98.3073 88.6001L98.6328 88.6172C98.964 88.6401 99.2609 88.7314 99.5235 88.8913C99.7976 89.0397 100.026 89.2339 100.209 89.4737C100.391 89.7135 100.523 89.9876 100.603 90.2959C100.683 90.5928 100.688 90.9068 100.62 91.238L100.02 94.2357C99.9175 94.7495 99.6606 95.1721 99.2495 95.5032C98.8498 95.8344 98.3873 96 97.862 96H90.0338C89.6912 96 89.3715 95.9258 89.0746 95.7773C88.7777 95.6289 88.5321 95.4347 88.338 95.1949C88.1439 94.9551 88.0011 94.6753 87.9098 94.3556C87.8298 94.0358 87.8241 93.7046 87.8927 93.3621Z" fill="#0C181C"/>
<path d="M73.6241 93.3621L73.8125 92.4028H77.4097L77.3412 92.7283C77.3183 92.8539 77.3469 92.9681 77.4268 93.0709C77.5068 93.1622 77.6095 93.2079 77.7352 93.2079H82.0346C82.126 93.2079 82.2059 93.1793 82.2744 93.1222C82.3544 93.0537 82.4058 92.9738 82.4286 92.8824L82.6684 91.6834C82.6913 91.5578 82.6627 91.4493 82.5828 91.3579C82.5028 91.2551 82.4001 91.2038 82.2744 91.2038H76.7245C76.3819 91.2038 76.0622 91.1295 75.7653 90.9811C75.4684 90.8326 75.2228 90.6385 75.0287 90.3987C74.8346 90.1589 74.6918 89.8791 74.6005 89.5593C74.5205 89.2396 74.5148 88.9084 74.5833 88.5658L75.1315 85.7737C75.2343 85.2598 75.4855 84.8373 75.8852 84.5062C76.2963 84.175 76.7645 84.0094 77.2898 84.0094H85.2036C85.5462 84.0094 85.8659 84.0836 86.1628 84.2321C86.4597 84.3805 86.7053 84.5747 86.8994 84.8145C87.0935 85.0543 87.2363 85.3341 87.3276 85.6538C87.419 85.9622 87.4304 86.2876 87.3619 86.6302L87.1563 87.6066H83.5592L83.6277 87.2811C83.6505 87.1555 83.622 87.047 83.542 86.9557C83.4621 86.8529 83.3593 86.8015 83.2337 86.8015H78.8486C78.643 86.8015 78.5117 86.91 78.4546 87.127L78.2662 88.1205C78.2433 88.2461 78.2719 88.3603 78.3518 88.463C78.4317 88.5544 78.5345 88.6001 78.6601 88.6001H83.1994C83.542 88.6001 83.8218 88.6001 84.0388 88.6001L84.3642 88.6172C84.6954 88.6401 84.9923 88.7314 85.255 88.8913C85.529 89.0397 85.7574 89.2339 85.9401 89.4737C86.1229 89.7135 86.2542 89.9876 86.3341 90.2959C86.4141 90.5928 86.4198 90.9068 86.3512 91.238L85.7517 94.2357C85.6489 94.7495 85.392 95.1721 84.9809 95.5032C84.5812 95.8344 84.1187 96 83.5934 96H75.7653C75.4227 96 75.1029 95.9258 74.806 95.7773C74.5091 95.6289 74.2636 95.4347 74.0695 95.1949C73.8753 94.9551 73.7326 94.6753 73.6412 94.3556C73.5613 94.0358 73.5556 93.7046 73.6241 93.3621Z" fill="#0C181C"/>
<path d="M68.0067 92.6084H62.8165L62.1314 96H58.5342L60.6068 85.6196C60.6982 85.1399 60.9266 84.7517 61.292 84.4548C61.6689 84.1579 62.0971 84.0094 62.5767 84.0094H70.8845C71.2042 84.0094 71.4954 84.0779 71.7581 84.215C72.0322 84.3406 72.2548 84.5176 72.4261 84.746C72.6088 84.9629 72.7402 85.2142 72.8201 85.4997C72.9 85.7851 72.9058 86.0821 72.8372 86.3904L70.9187 96H67.3216L68.0067 92.6084ZM63.3647 89.7991H68.572L69.0688 87.2811C69.0916 87.1555 69.0631 87.047 68.9831 86.9557C68.9032 86.8529 68.8004 86.8015 68.6748 86.8015H64.3068C64.0784 86.8015 63.9471 86.91 63.9128 87.127L63.3647 89.7991Z" fill="#0C181C"/>
<path d="M47.6501 84.0094H51.6412L49.8084 93.2079H57.2425L56.6773 96H45.252L47.6501 84.0094Z" fill="#0C181C"/>
<path d="M33.1428 86.8015L35.1469 87.401L34.0849 92.7283C34.0621 92.8539 34.0906 92.9681 34.1706 93.0709C34.2505 93.1622 34.3533 93.2079 34.4789 93.2079H39.1723C39.3779 93.2079 39.5092 93.0994 39.5663 92.8824L39.7376 92.0088H43.3348L42.8552 94.3898C42.7638 94.8694 42.5354 95.2577 42.17 95.5546C41.8046 95.8515 41.382 96 40.9024 96H31.978C31.7039 96 31.447 95.9429 31.2072 95.8287C30.9674 95.7145 30.7675 95.5603 30.6076 95.3662C30.4478 95.1606 30.3336 94.9323 30.265 94.681C30.1965 94.4298 30.1908 94.1671 30.2479 93.8931L31.9095 85.6196C32.0008 85.1399 32.2292 84.7517 32.5946 84.4548C32.9601 84.1579 33.3826 84.0094 33.8622 84.0094H42.5811C42.8894 84.0094 43.1749 84.0779 43.4376 84.215C43.7116 84.3406 43.94 84.5176 44.1227 84.746C44.3055 84.9629 44.4368 85.2142 44.5167 85.4997C44.5967 85.7851 44.6024 86.0821 44.5338 86.3904L44.2084 88.0006H40.6112L40.7654 87.2811C40.7882 87.1555 40.7597 87.047 40.6797 86.9557C40.5998 86.8529 40.497 86.8015 40.3714 86.8015H33.1428Z" fill="#0C181C"/>
<path d="M84.5953 70H43.1421L51.1358 30.0314H86.9363C88.0021 30.0314 88.9728 30.2598 89.8483 30.7165C90.7619 31.1353 91.5041 31.7253 92.0751 32.4866C92.6842 33.2098 93.1219 34.0473 93.3884 34.9989C93.6548 35.9505 93.6739 36.9402 93.4455 37.968L92.1893 44.4201C91.9228 45.6382 91.2948 46.6659 90.3051 47.5034C89.3534 48.3027 88.2305 48.7024 86.9363 48.7024H87.7928C88.6302 48.7024 89.4105 48.8928 90.1338 49.2734C90.857 49.616 91.447 50.0918 91.9038 50.7009C92.3987 51.2718 92.7413 51.938 92.9316 52.6993C93.16 53.4606 93.198 54.2409 93.0458 55.0403L91.1044 64.6328C90.7999 66.2315 90.0386 67.5257 88.8205 68.5154C87.6024 69.5051 86.194 70 84.5953 70ZM79.6848 60.3504C79.9132 60.1601 80.0655 59.9127 80.1416 59.6082L81.1694 54.298C81.2455 53.8793 81.1504 53.5177 80.8839 53.2132C80.6555 52.8706 80.3319 52.6993 79.9132 52.6993H59.2437L57.645 60.693H78.8284C79.1329 60.693 79.4184 60.5788 79.6848 60.3504ZM61.9273 39.3384L60.8425 44.7056H79.0568C79.7419 44.7056 80.1797 44.3439 80.37 43.6207L80.8839 40.9371C80.96 40.5184 80.8649 40.1568 80.5984 39.8522C80.3319 39.5096 79.9894 39.3384 79.5706 39.3384H61.9273Z" fill="#0C181C"/>
<defs>
<linearGradient id="paint0_linear_2215_35" x1="66.5" y1="2" x2="66.5" y2="131" gradientUnits="userSpaceOnUse">
<stop stop-color="#FF9346"/>
<stop offset="1" stop-color="#FFD563"/>
</linearGradient>
<linearGradient id="paint1_linear_2215_35" x1="66.5" y1="10" x2="66.5" y2="123" gradientUnits="userSpaceOnUse">
<stop stop-color="#FF9346"/>
<stop offset="1" stop-color="#FFD563"/>
</linearGradient>
</defs>
</svg>
