<svg width="33" height="26" viewBox="0 0 33 26" fill="none" xmlns="http://www.w3.org/2000/svg">
<path d="M5.38624 2.29438C7.47041 1.31925 9.6989 0.610563 12.0287 0.207031C12.3149 0.724344 12.6491 1.42014 12.8796 1.97364C15.3563 1.60118 17.8102 1.60118 20.2413 1.97364C20.4717 1.42014 20.8136 0.724344 21.1023 0.207031C23.4346 0.610563 25.6657 1.32185 27.7499 2.29954C31.9536 8.65202 33.0932 14.8467 32.5234 20.9534C29.7353 23.0356 27.0332 24.3004 24.3767 25.1281C23.7208 24.2254 23.1358 23.2658 22.6319 22.2545C23.5917 21.8898 24.5109 21.4397 25.3795 20.9172C25.1491 20.7465 24.9237 20.568 24.7059 20.3844C19.4081 22.8623 13.652 22.8623 8.41751 20.3844C8.19719 20.568 7.97183 20.7465 7.74392 20.9172C8.61506 21.4423 9.53684 21.8923 10.4966 22.2571C9.99267 23.2658 9.41021 24.228 8.7518 25.1306C6.09276 24.303 3.38818 23.0382 0.600006 20.9534C-0.0685577 13.8742 1.7421 7.73638 5.38624 2.29438ZM21.9101 17.1978C23.5005 17.1978 24.8047 15.7132 24.8047 13.9052C24.8047 12.0972 23.5283 10.61 21.9101 10.61C20.2919 10.61 18.9878 12.0946 19.0156 13.9052C19.0131 15.7132 20.2919 17.1978 21.9101 17.1978ZM11.2133 17.1978C12.8036 17.1978 14.1078 15.7132 14.1078 13.9052C14.1078 12.0972 12.8315 10.61 11.2133 10.61C9.59509 10.61 8.29089 12.0946 8.31874 13.9052C8.31874 15.7132 9.59509 17.1978 11.2133 17.1978Z" fill="#F7F5FF"/>
</svg>
