<svg width="41" height="57" viewBox="0 0 41 57" fill="none" xmlns="http://www.w3.org/2000/svg">
<path fill-rule="evenodd" clip-rule="evenodd" d="M0.126953 38.1003L20.2275 56.7764L40.3281 38.1003L34.6309 32.8069L20.2275 46.1168L5.82414 32.8069L0.126953 38.1003ZM20.2275 47.3361L34.6291 34.0278L39.0122 38.1003L20.2275 55.5537L1.44283 38.1003L5.82593 34.0278L20.2275 47.3361Z" fill="#FFCC2A"/>
<path fill-rule="evenodd" clip-rule="evenodd" d="M0.126953 22.2897L20.2275 40.9658L40.3281 22.2897L34.6309 16.9963L20.2275 30.3062L5.82414 16.9963L0.126953 22.2897ZM20.2275 31.5255L34.6291 18.2173L39.0122 22.2897L20.2275 39.7432L1.44283 22.2897L5.82593 18.2173L20.2275 31.5255Z" fill="#FFCC2A" fill-opacity="0.7"/>
<path fill-rule="evenodd" clip-rule="evenodd" d="M0.126953 5.86372L20.2275 24.5398L40.3281 5.86372L34.6309 0.570282L20.2275 13.8802L5.82414 0.570282L0.126953 5.86372ZM20.2275 15.0995L34.6291 1.79124L39.0122 5.86372L20.2275 23.3172L1.44283 5.86372L5.82593 1.79124L20.2275 15.0995Z" fill="#FFCC2A" fill-opacity="0.3"/>
</svg>
