<svg width="186" height="56" viewBox="0 0 186 56" fill="none" xmlns="http://www.w3.org/2000/svg">
<path d="M179.044 0.0712891H7.73767C3.95635 0.0712891 0.890991 3.14692 0.890991 6.9409V48.2017C0.890991 51.9957 3.95635 55.0713 7.73767 55.0713H179.044C182.826 55.0713 185.891 51.9957 185.891 48.2017V6.9409C185.891 3.14692 182.826 0.0712891 179.044 0.0712891Z" fill="#6E6E6E"/>
<path d="M65.8753 14.1559C65.8928 14.6636 65.8064 15.1695 65.6216 15.6425C65.4367 16.1154 65.1573 16.5454 64.8005 16.9059C64.4122 17.3132 63.9422 17.6334 63.4216 17.8453C62.901 18.0572 62.3416 18.156 61.7802 18.1353C61.2132 18.144 60.6502 18.0384 60.1247 17.8247C59.5991 17.611 59.1217 17.2936 58.7207 16.8913C58.3198 16.4889 58.0034 16.0099 57.7904 15.4826C57.5774 14.9553 57.4722 14.3904 57.4809 13.8216C57.4722 13.2527 57.5774 12.6878 57.7904 12.1605C58.0034 11.6332 58.3198 11.1542 58.7207 10.7518C59.1217 10.3495 59.5991 10.0321 60.1247 9.8184C60.6502 9.60471 61.2132 9.49909 61.7802 9.50782C62.3601 9.50749 62.9341 9.62487 63.4677 9.85292C63.9623 10.0541 64.4011 10.3723 64.7467 10.7804L64.0266 11.5029C63.7521 11.1776 63.4068 10.92 63.0173 10.7498C62.6278 10.5797 62.2045 10.5016 61.7802 10.5215C61.3513 10.5215 60.9266 10.6072 60.5312 10.7739C60.1357 10.9405 59.7773 11.1846 59.477 11.4919C59.1768 11.7992 58.9406 12.1636 58.7824 12.5636C58.6242 12.9636 58.5471 13.3913 58.5557 13.8216C58.5471 14.2518 58.6242 14.6795 58.7824 15.0795C58.9406 15.4795 59.1768 15.8439 59.477 16.1512C59.7773 16.4585 60.1357 16.7026 60.5312 16.8692C60.9266 17.0359 61.3513 17.1216 61.7802 17.1216C62.2097 17.1461 62.6396 17.0811 63.0429 16.9308C63.4461 16.7804 63.814 16.548 64.1233 16.248C64.547 15.792 64.7947 15.1993 64.822 14.5765H61.8339V13.5843H65.8108C65.8496 13.7725 65.8712 13.9638 65.8753 14.1559Z" fill="#D2D3D4" stroke="#D2D3D4" stroke-width="0.345185" stroke-miterlimit="10"/>
<path d="M72.1841 10.7159H68.4437V13.3257H71.8294V14.3178H68.4437V16.9276H72.1841V17.9521H67.3904V9.70215H72.1841V10.7159Z" fill="#D2D3D4" stroke="#D2D3D4" stroke-width="0.345185" stroke-miterlimit="10"/>
<path d="M76.646 17.9521H75.5712V10.7159H73.2925V9.70215H78.9462V10.7159H76.646V17.9521Z" fill="#D2D3D4" stroke="#D2D3D4" stroke-width="0.345185" stroke-miterlimit="10"/>
<path d="M83.0292 17.9521V9.70215H84.104V17.9521H83.0292Z" fill="#D2D3D4" stroke="#D2D3D4" stroke-width="0.345185" stroke-miterlimit="10"/>
<path d="M88.7697 17.9521H87.6949V10.7159H85.4162V9.70215H91.0698V10.7159H88.7697V17.9521Z" fill="#D2D3D4" stroke="#D2D3D4" stroke-width="0.345185" stroke-miterlimit="10"/>
<path d="M101.763 16.8844C100.959 17.678 99.8758 18.1228 98.7479 18.1228C97.6199 18.1228 96.5371 17.678 95.733 16.8844C95.3388 16.4803 95.0293 16.0011 94.8225 15.4751C94.6158 14.9491 94.5161 14.3869 94.5292 13.8217C94.5161 13.2564 94.6158 12.6942 94.8225 12.1682C95.0293 11.6422 95.3388 11.163 95.733 10.7589C96.5371 9.96528 97.6199 9.52051 98.7479 9.52051C99.8758 9.52051 100.959 9.96528 101.763 10.7589C102.163 11.1604 102.478 11.6383 102.691 12.1644C102.903 12.6906 103.008 13.2541 102.999 13.8217C103.007 14.3891 102.902 14.9525 102.69 15.4785C102.477 16.0046 102.162 16.4826 101.763 16.8844ZM96.5498 16.2481C96.8424 16.5426 97.19 16.7762 97.5727 16.9356C97.9554 17.095 98.3657 17.177 98.7801 17.177C99.1945 17.177 99.6048 17.095 99.9875 16.9356C100.37 16.7762 100.718 16.5426 101.01 16.2481C101.315 15.9351 101.552 15.5635 101.709 15.1557C101.866 14.7479 101.939 14.3125 101.924 13.8756C101.939 13.4387 101.866 13.0032 101.709 12.5954C101.552 12.1877 101.315 11.8161 101.01 11.503C100.718 11.2086 100.37 10.975 99.9875 10.8156C99.6048 10.6562 99.1945 10.5741 98.7801 10.5741C98.3657 10.5741 97.9554 10.6562 97.5727 10.8156C97.19 10.975 96.8424 11.2086 96.5498 11.503C96.2457 11.8161 96.0079 12.1877 95.8509 12.5954C95.6939 13.0032 95.6209 13.4387 95.6362 13.8756C95.6209 14.3125 95.6939 14.7479 95.8509 15.1557C96.0079 15.5635 96.2457 15.9351 96.5498 16.2481Z" fill="#D2D3D4" stroke="#D2D3D4" stroke-width="0.345185" stroke-miterlimit="10"/>
<path d="M104.461 17.9521V9.70215H105.74L109.738 16.1727V14.5767V9.70215H110.813V17.9521H109.738L105.557 11.2227V12.808V17.9521H104.461Z" fill="#D2D3D4" stroke="#D2D3D4" stroke-width="0.345185" stroke-miterlimit="10"/>
<path d="M94.2619 29.9771C93.1085 29.9814 91.9822 30.3285 91.0253 30.9745C90.0683 31.6206 89.3236 32.5366 88.8852 33.607C88.4467 34.6774 88.3342 35.8541 88.5618 36.9886C88.7894 38.1231 89.347 39.1645 90.1641 39.9813C90.9811 40.7981 92.0211 41.3537 93.1527 41.5779C94.2842 41.8021 95.4566 41.6849 96.5218 41.2411C97.587 40.7972 98.4972 40.0467 99.1376 39.0841C99.778 38.1216 100.12 36.9903 100.12 35.833C100.133 35.0586 99.9902 34.2894 99.7002 33.5715C99.4102 32.8537 98.9789 32.2019 98.432 31.6552C97.8851 31.1084 97.2339 30.6781 96.5174 30.3897C95.8009 30.1014 95.0337 29.9611 94.2619 29.9771ZM94.2619 39.3703C93.5536 39.4201 92.8468 39.2548 92.2334 38.896C91.6201 38.5371 91.1286 38.0013 90.8229 37.3583C90.5173 36.7153 90.4116 35.9948 90.5197 35.2907C90.6278 34.5866 90.9447 33.9315 91.429 33.4106C91.9134 32.8897 92.5428 32.5271 93.2353 32.3701C93.9279 32.2131 94.6515 32.2689 95.312 32.5303C95.9725 32.7917 96.5393 33.2465 96.9387 33.8355C97.338 34.4246 97.5513 35.1206 97.5509 35.833C97.5725 36.2834 97.504 36.7336 97.3493 37.157C97.1947 37.5804 96.9571 37.9685 96.6505 38.2982C96.3439 38.6279 95.9746 38.8927 95.5643 39.0768C95.1541 39.2609 94.7112 39.3607 94.2619 39.3703ZM81.5036 29.9771C80.3498 29.9793 79.2224 30.3245 78.2641 30.9693C77.3057 31.614 76.5593 32.5293 76.1192 33.5995C75.6791 34.6698 75.5651 35.8468 75.7915 36.9821C76.0179 38.1173 76.5746 39.1597 77.3913 39.9776C78.2079 40.7954 79.2479 41.3521 80.3797 41.5772C81.5116 41.8022 82.6845 41.6857 83.7503 41.2421C84.8162 40.7986 85.727 40.048 86.3679 39.0853C87.0087 38.1225 87.3507 36.9908 87.3507 35.833C87.3624 35.0599 87.219 34.2923 86.9291 33.5758C86.6393 32.8594 86.2088 32.2087 85.6634 31.6624C85.118 31.1162 84.4687 30.6855 83.7541 30.396C83.0395 30.1065 82.2742 29.9641 81.5036 29.9771ZM81.5036 39.3703C80.7954 39.4201 80.0885 39.2548 79.4752 38.896C78.8618 38.5371 78.3703 38.0013 78.0647 37.3583C77.759 36.7153 77.6534 35.9948 77.7615 35.2907C77.8696 34.5866 78.1864 33.9315 78.6707 33.4106C79.1551 32.8897 79.7845 32.5271 80.4771 32.3701C81.1696 32.2131 81.8933 32.2689 82.5538 32.5303C83.2143 32.7917 83.7811 33.2465 84.1804 33.8355C84.5797 34.4246 84.793 35.1206 84.7926 35.833C84.8143 36.2834 84.7457 36.7336 84.5911 37.157C84.4364 37.5804 84.1988 37.9685 83.8922 38.2982C83.5857 38.6279 83.2163 38.8927 82.8061 39.0768C82.3958 39.2609 81.953 39.3607 81.5036 39.3703ZM66.3163 31.8213V34.3017H72.2386C72.1506 35.4641 71.6733 36.5625 70.8843 37.4183C70.2924 38.0259 69.5799 38.502 68.7931 38.816C68.0062 39.1299 67.1624 39.2747 66.3163 39.2409C64.5717 39.2409 62.8986 38.5455 61.6649 37.3078C60.4313 36.07 59.7383 34.3913 59.7383 32.6409C59.7383 30.8904 60.4313 29.2117 61.6649 27.974C62.8986 26.7362 64.5717 26.0409 66.3163 26.0409C67.9646 26.0077 69.5595 26.6277 70.7553 27.7664L72.4966 26.0193C71.6816 25.208 70.713 24.5686 69.6479 24.1389C68.5827 23.7092 67.4426 23.4979 66.2948 23.5173C63.8945 23.5173 61.5926 24.474 59.8954 26.1769C58.1982 27.8798 57.2447 30.1895 57.2447 32.5977C57.2447 35.006 58.1982 37.3156 59.8954 39.0185C61.5926 40.7214 63.8945 41.6781 66.2948 41.6781C67.4678 41.7273 68.6378 41.5258 69.7274 41.0871C70.8169 40.6483 71.8011 39.9822 72.6148 39.133C74.0613 37.552 74.833 35.4654 74.7644 33.3203C74.7698 32.8033 74.7266 32.287 74.6355 31.7781L66.3163 31.8213ZM128.409 33.7409C128.072 32.6708 127.41 31.733 126.516 31.0583C125.622 30.3836 124.54 30.0057 123.422 29.9771C122.672 29.9819 121.931 30.1392 121.244 30.4395C120.556 30.7398 119.937 31.1768 119.422 31.7242C118.908 32.2715 118.509 32.9178 118.251 33.6241C117.993 34.3303 117.88 35.0818 117.919 35.833C117.903 36.6023 118.042 37.3669 118.327 38.0812C118.612 38.7954 119.037 39.4447 119.578 39.9903C120.119 40.5359 120.764 40.9665 121.474 41.2565C122.184 41.5465 122.946 41.6899 123.712 41.6781C124.671 41.6836 125.616 41.4499 126.462 40.9982C127.308 40.5464 128.029 39.8906 128.56 39.0899L126.582 37.7526C126.285 38.2492 125.864 38.6596 125.361 38.9433C124.858 39.2269 124.289 39.3741 123.712 39.3703C123.118 39.3963 122.53 39.2412 122.026 38.9256C121.521 38.6099 121.124 38.1483 120.885 37.6017L128.678 34.3664L128.409 33.7409ZM120.466 35.6605C120.419 34.8039 120.713 33.9637 121.284 33.3246C121.854 32.6856 122.654 32.3 123.508 32.2526C123.948 32.2234 124.387 32.3256 124.77 32.5463C125.152 32.767 125.461 33.0963 125.658 33.4928L120.466 35.6605ZM114.125 41.333H116.683V24.1321H114.125V41.333ZM109.933 31.3036H109.847C109.457 30.8781 108.981 30.5408 108.451 30.314C107.921 30.0871 107.349 29.976 106.773 29.9879C105.27 30.0527 103.85 30.6974 102.809 31.7875C101.768 32.8776 101.187 34.3288 101.187 35.8384C101.187 37.348 101.768 38.7993 102.809 39.8894C103.85 40.9794 105.27 41.6241 106.773 41.6889C107.35 41.7016 107.923 41.5897 108.454 41.3609C108.984 41.132 109.459 40.7915 109.847 40.3624H109.933V41.2036C109.933 43.436 108.74 44.633 106.816 44.633C106.176 44.6174 105.556 44.4111 105.033 44.0405C104.51 43.6698 104.11 43.1516 103.882 42.5517L101.657 43.4791C102.073 44.5073 102.788 45.3867 103.707 46.0037C104.627 46.6208 105.71 46.9472 106.816 46.9409C109.825 46.9409 112.362 45.1615 112.362 40.8477V30.333H109.933V31.3036ZM106.999 39.3811C106.555 39.3673 106.119 39.2649 105.716 39.0799C105.313 38.8948 104.95 38.6308 104.65 38.3033C104.349 37.9759 104.117 37.5916 103.967 37.173C103.817 36.7543 103.751 36.3098 103.774 35.8654C103.75 35.4179 103.814 34.9701 103.963 34.5477C104.112 34.1253 104.343 33.7369 104.643 33.4048C104.943 33.0728 105.306 32.8038 105.71 32.6134C106.114 32.423 106.552 32.3151 106.999 32.2958C107.439 32.3188 107.869 32.4303 108.266 32.6235C108.662 32.8168 109.015 33.088 109.305 33.4209C109.595 33.7538 109.815 34.1418 109.952 34.5617C110.09 34.9816 110.141 35.4249 110.105 35.8654C110.142 36.3025 110.089 36.7426 109.951 37.1589C109.813 37.5751 109.592 37.9588 109.301 38.2866C109.011 38.6145 108.657 38.8796 108.261 39.0659C107.865 39.2522 107.436 39.3557 106.999 39.3703V39.3811ZM140.404 24.1321H134.278V41.3222H136.836V34.8517H140.404C141.167 34.9606 141.943 34.904 142.681 34.6857C143.42 34.4674 144.103 34.0925 144.684 33.5863C145.266 33.0801 145.732 32.4545 146.052 31.7519C146.371 31.0492 146.537 30.2858 146.537 29.5134C146.537 28.741 146.371 27.9777 146.052 27.275C145.732 26.5723 145.266 25.9467 144.684 25.4405C144.103 24.9344 143.42 24.5594 142.681 24.3411C141.943 24.1228 141.167 24.0662 140.404 24.1752V24.1321ZM140.469 32.4144H136.836V26.5262H140.469C141.247 26.5262 141.993 26.8364 142.544 27.3885C143.094 27.9406 143.403 28.6895 143.403 29.4703C143.403 30.2511 143.094 31 142.544 31.5521C141.993 32.1042 141.247 32.4144 140.469 32.4144ZM156.28 29.9448C155.346 29.8894 154.416 30.109 153.604 30.5764C152.793 31.0439 152.135 31.7389 151.712 32.5762L153.98 33.536C154.204 33.1189 154.546 32.7772 154.963 32.5529C155.379 32.3287 155.852 32.2318 156.323 32.2742C156.971 32.211 157.618 32.4082 158.121 32.8226C158.625 33.237 158.945 33.8348 159.01 34.485V34.6575C158.187 34.2248 157.273 33.999 156.344 33.9997C153.894 33.9997 151.4 35.3477 151.4 37.8713C151.424 38.4063 151.556 38.9308 151.787 39.4134C152.019 39.896 152.345 40.3266 152.747 40.6792C153.148 41.0319 153.617 41.2993 154.124 41.4654C154.632 41.6315 155.168 41.6929 155.699 41.6458C156.33 41.6706 156.957 41.5294 157.517 41.2362C158.077 40.943 158.551 40.5079 158.892 39.9742H158.978V41.3007H161.45V34.7007C161.482 31.6487 159.203 29.9448 156.28 29.9448ZM155.968 39.3703C155.13 39.3703 153.958 38.9497 153.958 37.9144C153.958 36.5879 155.42 36.0703 156.677 36.0703C157.493 36.0504 158.299 36.2516 159.01 36.6526C158.914 37.3973 158.554 38.0822 157.995 38.5815C157.436 39.0808 156.716 39.3609 155.968 39.3703ZM170.467 30.3222L167.49 37.8173L164.448 30.3654H161.697L166.254 40.783L163.653 46.5742H166.329L173.359 30.3977L170.467 30.3222ZM147.434 41.3222H149.992V24.1321H147.434V41.3222Z" fill="#D2D3D4"/>
<path d="M35.8412 34.6653L30.1876 28.9388V28.529L35.8412 22.8564L35.9702 22.9319L42.6772 26.7496C44.5904 27.828 44.5904 29.629 42.6772 30.7182L35.9702 34.5466L35.8412 34.6653Z" fill="url(#paint0_linear_2184_34)"/>
<path d="M35.9707 34.5461L30.1881 28.7334L13.0983 45.8697C13.4889 46.2142 13.9871 46.4114 14.507 46.4271C15.0269 46.4429 15.536 46.2763 15.9466 45.9559L35.9707 34.5461Z" fill="url(#paint1_linear_2184_34)"/>
<path d="M13.0989 11.5975C12.6495 12.1361 12.4226 12.8268 12.4647 13.5279V43.9397C12.4226 44.6408 12.6495 45.3315 13.0989 45.8701L13.2063 45.9672L30.1887 28.9387V28.5289L13.2063 11.5005L13.0989 11.5975Z" fill="url(#paint2_linear_2184_34)"/>
<path d="M35.9702 22.9314L15.9998 11.5108C15.5892 11.1905 15.0801 11.0238 14.5602 11.0396C14.0403 11.0553 13.5422 11.2525 13.1515 11.5971L30.1876 28.7333L35.9702 22.9314Z" fill="url(#paint3_linear_2184_34)"/>
<path opacity="0.2" d="M35.8412 34.4155L15.9998 45.7498C15.6048 46.0482 15.1238 46.2095 14.6294 46.2095C14.135 46.2095 13.654 46.0482 13.259 45.7498L13.1515 45.8469L13.259 45.944C13.6533 46.244 14.1346 46.4064 14.6294 46.4064C15.1243 46.4064 15.6055 46.244 15.9998 45.944L35.9702 34.5449L35.8412 34.4155Z" fill="black"/>
<path opacity="0.12" d="M42.6763 30.5236L35.8404 34.4167L35.9694 34.5461L42.6763 30.7177C43.0705 30.5467 43.4114 30.272 43.663 29.9228C43.9146 29.5735 44.0676 29.1626 44.1059 28.7334C44.0239 29.1232 43.8518 29.4883 43.6035 29.7993C43.3552 30.1102 43.0376 30.3583 42.6763 30.5236Z" fill="black"/>
<defs>
<linearGradient id="paint0_linear_2184_34" x1="45.1708" y1="28.7339" x2="12.0122" y2="28.7339" gradientUnits="userSpaceOnUse">
<stop stop-color="#FFE000"/>
<stop offset="0.41" stop-color="#FFBD00"/>
<stop offset="0.78" stop-color="#FFA500"/>
<stop offset="1" stop-color="#FF9C00"/>
</linearGradient>
<linearGradient id="paint1_linear_2184_34" x1="32.8215" y1="31.8824" x2="1.53631" y2="63.0739" gradientUnits="userSpaceOnUse">
<stop stop-color="#FF3A44"/>
<stop offset="1" stop-color="#C31162"/>
</linearGradient>
<linearGradient id="paint2_linear_2184_34" x1="28.6732" y1="13.2044" x2="5.60561" y2="36.2057" gradientUnits="userSpaceOnUse">
<stop stop-color="#00A0FF"/>
<stop offset="0.01" stop-color="#00A1FF"/>
<stop offset="0.26" stop-color="#00BEFF"/>
<stop offset="0.51" stop-color="#00D2FF"/>
<stop offset="0.76" stop-color="#00DFFF"/>
<stop offset="1" stop-color="#00E3FF"/>
</linearGradient>
<linearGradient id="paint3_linear_2184_34" x1="8.79845" y1="1.47059" x2="22.7748" y2="15.4003" gradientUnits="userSpaceOnUse">
<stop stop-color="#32A071"/>
<stop offset="0.07" stop-color="#2DA771"/>
<stop offset="0.48" stop-color="#15CF74"/>
<stop offset="0.8" stop-color="#06E775"/>
<stop offset="1" stop-color="#00F076"/>
</linearGradient>
</defs>
</svg>
