<svg width="164" height="55" viewBox="0 0 164 55" fill="none" xmlns="http://www.w3.org/2000/svg">
<path d="M150.94 0.000178749H13.0673C12.5647 0.000178749 12.0682 0.000178749 11.567 0.00292874C11.1474 0.00567873 10.7312 0.0136675 10.3076 0.0203912C9.38728 0.0312561 8.46917 0.112483 7.5612 0.263367C6.65451 0.417535 5.77622 0.708186 4.95604 1.12549C4.13686 1.54632 3.38836 2.09315 2.73768 2.74614C2.08358 3.39729 1.53834 4.14994 1.12292 4.97513C0.706358 5.79869 0.417511 6.6812 0.266357 7.59219C0.113767 8.50203 0.0316564 9.42236 0.0207631 10.3449C0.00804486 10.7665 0.00670176 11.1895 0 11.6111V43.3931C0.00670176 43.82 0.00804486 44.2336 0.0207631 44.6607C0.0316597 45.5832 0.11377 46.5035 0.266357 47.4133C0.417093 48.3249 0.705957 49.2079 1.12292 50.0317C1.53815 50.8543 2.08347 51.6039 2.73768 52.2514C3.38589 52.9073 4.13488 53.4545 4.95604 53.8721C5.77622 54.2905 6.65441 54.5829 7.5612 54.7394C8.46933 54.8891 9.38734 54.9704 10.3076 54.9825C10.7312 54.9919 11.1474 54.9973 11.567 54.9973C12.0682 55 12.5648 55 13.0673 55H150.94C151.433 55 151.933 55 152.426 54.9973C152.843 54.9973 153.272 54.9919 153.689 54.9825C154.608 54.971 155.524 54.8898 156.43 54.7394C157.34 54.5818 158.221 54.2895 159.045 53.8721C159.866 53.4542 160.614 52.9071 161.262 52.2514C161.914 51.6013 162.461 50.8523 162.881 50.0317C163.295 49.2073 163.581 48.3243 163.73 47.4133C163.882 46.5034 163.967 45.5833 163.984 44.6607C163.989 44.2336 163.989 43.82 163.989 43.3931C164 42.8936 164 42.3968 164 41.8891V13.1123C164 12.6088 164 12.1093 163.989 11.6111C163.989 11.1895 163.989 10.7665 163.984 10.3449C163.967 9.42223 163.882 8.5021 163.73 7.59213C163.581 6.68167 163.295 5.79923 162.881 4.97508C162.035 3.32106 160.694 1.97471 159.045 1.12537C158.221 0.709082 157.34 0.418508 156.43 0.263243C155.524 0.111695 154.608 0.0304393 153.689 0.0201987C153.272 0.0134887 152.843 0.00543123 152.426 0.00274999C151.933 0 151.433 0.000178749 150.94 0.000178749Z" fill="#6E6E6E"/>
<path d="M33.9443 27.9154C33.9742 25.5827 35.1931 23.4281 37.1739 22.2063C35.9186 20.4077 33.8915 19.3082 31.704 19.2395C29.4026 18.9971 27.1715 20.6211 25.9988 20.6211C24.8033 20.6211 22.9977 19.2636 21.0533 19.3037C18.495 19.3866 16.1678 20.8106 14.9231 23.0545C12.2726 27.6586 14.2497 34.425 16.7887 38.1466C18.059 39.9689 19.5436 42.0045 21.4863 41.9323C23.3872 41.8532 24.0972 40.7162 26.3918 40.7162C28.6652 40.7162 29.3313 41.9323 31.3133 41.8864C33.3531 41.8532 34.6383 40.056 35.8641 38.2164C36.7768 36.9179 37.4791 35.4828 37.9451 33.9642C35.5224 32.9362 33.9471 30.5545 33.9443 27.9154Z" fill="#D2D3D4"/>
<path d="M30.1995 16.7918C31.3117 15.4522 31.8596 13.7305 31.7269 11.9922C30.0277 12.1712 28.4581 12.986 27.3309 14.2741C26.2178 15.5451 25.6539 17.2078 25.7635 18.896C27.4854 18.9138 29.1204 18.1383 30.1995 16.7918Z" fill="#D2D3D4"/>
<path d="M57.976 37.319H51.4889L49.931 41.9341H47.1833L53.3278 24.8594H56.1826L62.3271 41.9341H59.5326L57.976 37.319ZM52.1608 35.1893H57.3029L54.768 27.6994H54.697L52.1608 35.1893Z" fill="#D2D3D4"/>
<path d="M75.5975 35.7097C75.5975 39.5782 73.5337 42.0637 70.4193 42.0637C68.8095 42.1482 67.2931 41.3022 66.5152 39.8857H66.4563V46.0517H63.9094V29.4846H66.3747V31.5552H66.4216C67.234 30.1475 68.752 29.3019 70.3725 29.3544C73.5216 29.3544 75.5975 31.8519 75.5975 35.7097ZM72.9796 35.7097C72.9796 33.1893 71.6814 31.5323 69.7006 31.5323C67.7546 31.5323 66.4456 33.2242 66.4456 35.7097C66.4456 38.218 67.7546 39.8978 69.7006 39.8978C71.6814 39.8978 72.9796 38.2529 72.9796 35.7097Z" fill="#D2D3D4"/>
<path d="M89.2528 35.7097C89.2528 39.5782 87.189 42.0637 84.0746 42.0637C82.4648 42.1481 80.9484 41.3022 80.1705 39.8857H80.1116V46.0517H77.5646V29.4846H80.0299V31.5551H80.0768C80.8892 30.1475 82.4072 29.3019 84.0277 29.3544C87.1769 29.3544 89.2528 31.8519 89.2528 35.7097ZM86.6349 35.7097C86.6349 33.1893 85.3367 31.5323 83.3558 31.5323C81.4098 31.5323 80.1009 33.2242 80.1009 35.7097C80.1009 38.218 81.4098 39.8978 83.3558 39.8978C85.3367 39.8978 86.6349 38.2529 86.6349 35.7097Z" fill="#D2D3D4"/>
<path d="M98.279 37.1757C98.4678 38.8689 100.107 39.9807 102.348 39.9807C104.495 39.9807 106.039 38.8689 106.039 37.3421C106.039 36.0168 105.107 35.2233 102.902 34.6794L100.696 34.1463C97.5711 33.389 96.1202 31.9227 96.1202 29.5433C96.1202 26.5973 98.6792 24.5737 102.313 24.5737C105.909 24.5737 108.374 26.5973 108.457 29.5433H105.886C105.732 27.8393 104.329 26.8108 102.277 26.8108C100.225 26.8108 98.8211 27.8514 98.8211 29.3661C98.8211 30.5732 99.7178 31.2836 101.911 31.8273L103.786 32.2892C107.278 33.1177 108.729 34.525 108.729 37.0225C108.729 40.2169 106.193 42.2177 102.159 42.2177C98.3847 42.2177 95.8365 40.2639 95.6718 37.1756L98.279 37.1757Z" fill="#D2D3D4"/>
<path d="M114.228 26.5381V29.4841H116.588V31.5077H114.228V38.3706C114.228 39.4367 114.701 39.9336 115.738 39.9336C116.018 39.9287 116.298 39.9089 116.576 39.8744V41.8859C116.109 41.9733 115.635 42.0129 115.161 42.0041C112.649 42.0041 111.669 41.0574 111.669 38.6431V31.5077H109.865V29.4841H111.669V26.5381H114.228Z" fill="#D2D3D4"/>
<path d="M117.953 35.7102C117.953 31.7933 120.252 29.332 123.838 29.332C127.435 29.332 129.724 31.7933 129.724 35.7102C129.724 39.6378 127.447 42.0883 123.838 42.0883C120.23 42.0883 117.953 39.6378 117.953 35.7102ZM127.129 35.7102C127.129 33.0233 125.902 31.4375 123.838 31.4375C121.774 31.4375 120.548 33.0354 120.548 35.7102C120.548 38.4078 121.774 39.9815 123.838 39.9815C125.902 39.9815 127.129 38.4078 127.129 35.7102Z" fill="#D2D3D4"/>
<path d="M131.827 29.4845H134.256V31.6034H134.315C134.654 30.2394 135.9 29.3006 137.3 29.3542C137.593 29.3532 137.886 29.3852 138.172 29.4496V31.8397C137.802 31.7261 137.415 31.674 137.028 31.6853C136.279 31.6548 135.555 31.9542 135.044 32.5049C134.534 33.0555 134.289 33.8024 134.374 34.5494V41.9333H131.827L131.827 29.4845Z" fill="#D2D3D4"/>
<path d="M149.912 38.2776C149.569 40.5374 147.376 42.0883 144.569 42.0883C140.96 42.0883 138.719 39.6619 138.719 35.7693C138.719 31.8645 140.972 29.332 144.462 29.332C147.895 29.332 150.054 31.698 150.054 35.4725V36.348H141.29V36.5024C141.208 37.4292 141.527 38.3466 142.166 39.0212C142.805 39.6959 143.701 40.0627 144.628 40.0285C145.864 40.1447 147.029 39.4326 147.494 38.2775L149.912 38.2776ZM141.302 34.5621L147.506 34.5621C147.552 33.7293 147.25 32.915 146.672 32.3152C146.094 31.7154 145.293 31.3847 144.462 31.4026C143.625 31.3976 142.819 31.7285 142.226 32.3218C141.633 32.9151 141.3 33.7216 141.302 34.5621Z" fill="#D2D3D4"/>
<path d="M51.8404 12.0049C52.9217 11.9271 53.9807 12.3398 54.7261 13.1295C55.4715 13.9192 55.8246 15.0026 55.6883 16.0816C55.6883 18.7027 54.2763 20.2093 51.8404 20.2093H48.8866V12.0049H51.8404ZM50.1567 19.049H51.6986C52.4713 19.0954 53.2237 18.7899 53.7468 18.2175C54.27 17.6451 54.5082 16.8666 54.3954 16.0983C54.5 15.3331 54.2584 14.5611 53.7365 13.9934C53.2146 13.4256 52.4672 13.1215 51.6986 13.1643H50.1567V19.049Z" fill="#D2D3D4"/>
<path d="M57.1221 17.1109C57.0163 16.0012 57.5467 14.9271 58.4909 14.3393C59.4351 13.7515 60.6298 13.7515 61.574 14.3393C62.5182 14.9271 63.0486 16.0012 62.9428 17.1109C63.0506 18.2219 62.5207 19.298 61.5757 19.8871C60.6306 20.4762 59.4343 20.4762 58.4893 19.8871C57.5442 19.298 57.0143 18.2219 57.1221 17.1109ZM61.69 17.1109C61.69 15.7689 61.0891 14.984 60.0345 14.984C58.9758 14.984 58.3803 15.7689 58.3803 17.111C58.3803 18.4638 58.9759 19.2426 60.0345 19.2426C61.0891 19.2426 61.69 18.4584 61.69 17.1109Z" fill="#D2D3D4"/>
<path d="M70.6791 20.2101H69.4157L68.1402 15.65H68.0439L66.7737 20.2101H65.5223L63.8213 14.0186H65.0566L66.1621 18.743H66.2531L67.5219 14.0186H68.6903L69.9591 18.743H70.0554L71.1556 14.0186H72.3735L70.6791 20.2101Z" fill="#D2D3D4"/>
<path d="M73.8071 14.0187H74.9795V15.0023H75.0705C75.387 14.2781 76.1265 13.8351 76.9121 13.8992C77.5203 13.8533 78.1164 14.0874 78.5319 14.5354C78.9475 14.9834 79.1374 15.5967 79.0481 16.202V20.2102H77.8302V16.5089C77.8302 15.5139 77.3993 15.0191 76.4985 15.0191C76.086 14.9998 75.6856 15.1622 75.4023 15.4638C75.1191 15.7654 74.9813 16.1761 75.025 16.5881V20.2102H73.807L73.8071 14.0187Z" fill="#D2D3D4"/>
<path d="M80.9895 11.6011H82.2074V20.2096H80.9895V11.6011Z" fill="#D2D3D4"/>
<path d="M83.8993 17.1111C83.7936 16.0012 84.3241 14.9272 85.2683 14.3393C86.2126 13.7515 87.4073 13.7515 88.3516 14.3393C89.2959 14.9272 89.8263 16.0012 89.7206 17.1111C89.8283 18.2221 89.2983 19.2982 88.3532 19.8872C87.4081 20.4763 86.2118 20.4763 85.2667 19.8872C84.3216 19.2982 83.7916 18.2221 83.8993 17.1111ZM88.4672 17.1111C88.4672 15.769 87.8663 14.9841 86.8116 14.9841C85.753 14.9841 85.1574 15.769 85.1574 17.1111C85.1574 18.4639 85.753 19.2427 86.8116 19.2427C87.8663 19.2427 88.4672 18.4585 88.4672 17.1111Z" fill="#D2D3D4"/>
<path d="M91.0011 18.4585C91.0011 17.344 91.8282 16.7015 93.2964 16.6101L94.968 16.5135V15.9791C94.968 15.3251 94.5371 14.9559 93.7046 14.9559C93.0247 14.9559 92.5536 15.2063 92.4184 15.644H91.2393C91.3638 14.5806 92.3609 13.8984 93.7608 13.8984C95.308 13.8984 96.1806 14.6712 96.1806 15.9791V20.2094H95.0082V19.3393H94.9118C94.5136 19.9748 93.8055 20.3461 93.0582 20.3115C92.5343 20.3661 92.0118 20.1959 91.6198 19.8429C91.2279 19.4898 91.0031 18.9869 91.0011 18.4585ZM94.968 17.9294V17.4118L93.461 17.5085C92.6111 17.5655 92.2257 17.8556 92.2257 18.4014C92.2257 18.9586 92.7075 19.2829 93.37 19.2829C93.7623 19.3228 94.1538 19.2012 94.455 18.946C94.7563 18.6909 94.9414 18.324 94.968 17.9294Z" fill="#D2D3D4"/>
<path d="M97.7839 17.1111C97.7839 15.1547 98.7863 13.9154 100.346 13.9154C101.133 13.879 101.87 14.3022 102.238 15.0016H102.329V11.6011H103.547V20.2096H102.38V19.2314H102.284C101.888 19.9249 101.141 20.341 100.346 20.3116C98.7756 20.3117 97.7839 19.0723 97.7839 17.1111ZM99.042 17.1111C99.042 18.4244 99.659 19.2146 100.691 19.2146C101.717 19.2146 102.352 18.413 102.352 17.1165C102.352 15.8261 101.711 15.0131 100.691 15.0131C99.6656 15.0131 99.042 15.8087 99.042 17.1111Z" fill="#D2D3D4"/>
<path d="M108.584 17.1109C108.479 16.0012 109.009 14.9271 109.953 14.3393C110.897 13.7515 112.092 13.7515 113.036 14.3393C113.98 14.9271 114.511 16.0012 114.405 17.1109C114.513 18.2219 113.983 19.298 113.038 19.8871C112.093 20.4762 110.897 20.4762 109.951 19.8871C109.006 19.298 108.477 18.2219 108.584 17.1109ZM113.152 17.1109C113.152 15.7689 112.551 14.984 111.497 14.984C110.438 14.984 109.842 15.7689 109.842 17.111C109.842 18.4638 110.438 19.2426 111.497 19.2426C112.551 19.2426 113.152 18.4584 113.152 17.1109Z" fill="#D2D3D4"/>
<path d="M116.04 14.0187H117.212V15.0023H117.303C117.62 14.2781 118.36 13.8351 119.145 13.8992C119.753 13.8533 120.349 14.0874 120.765 14.5354C121.18 14.9834 121.37 15.5967 121.281 16.202V20.2102H120.063V16.5089C120.063 15.5139 119.632 15.0191 118.731 15.0191C118.319 14.9998 117.919 15.1622 117.635 15.4638C117.352 15.7654 117.214 16.1761 117.258 16.5881V20.2102H116.04V14.0187Z" fill="#D2D3D4"/>
<path d="M128.161 12.4766V14.0463H129.498V15.0755H128.161V18.2592C128.161 18.9078 128.427 19.1918 129.034 19.1918C129.189 19.1913 129.344 19.1818 129.498 19.1636V20.1814C129.279 20.2206 129.058 20.2415 128.835 20.2438C127.481 20.2438 126.942 19.7658 126.942 18.5721V15.0754H125.962V14.0462H126.942V12.4766H128.161Z" fill="#D2D3D4"/>
<path d="M131.163 11.6011H132.37V15.0131H132.467C132.798 14.2825 133.551 13.839 134.348 13.9039C134.953 13.8709 135.541 14.1102 135.952 14.5565C136.363 15.0029 136.554 15.6099 136.474 16.2121V20.2096H135.255V16.5136C135.255 15.5246 134.795 15.0238 133.935 15.0238C133.511 14.9889 133.094 15.1435 132.794 15.4461C132.495 15.7487 132.343 16.1686 132.381 16.5935V20.2095H131.163L131.163 11.6011Z" fill="#D2D3D4"/>
<path d="M143.576 18.5378C143.235 19.7057 142.108 20.4603 140.902 20.3291C140.079 20.3508 139.288 20.0086 138.739 19.3932C138.19 18.7778 137.939 17.9514 138.051 17.1333C137.942 16.3129 138.192 15.4851 138.738 14.8645C139.284 14.2439 140.072 13.8915 140.897 13.8985C142.614 13.8985 143.65 15.0755 143.65 17.0198V17.4462H139.292V17.5146C139.253 17.9741 139.41 18.4285 139.723 18.7662C140.036 19.1039 140.476 19.2935 140.935 19.2884C141.531 19.3601 142.111 19.0636 142.404 18.5378L143.576 18.5378ZM139.292 16.5425H142.409C142.44 16.1223 142.293 15.7084 142.003 15.403C141.714 15.0975 141.31 14.9289 140.89 14.9385C140.464 14.9332 140.055 15.1004 139.754 15.4024C139.453 15.7044 139.286 16.1155 139.292 16.5425Z" fill="#D2D3D4"/>
</svg>
