<svg width="249" height="39" viewBox="0 0 249 39" fill="none" xmlns="http://www.w3.org/2000/svg">
<path d="M12.2753 8.20657L9.44872 19.496C9.38678 19.7625 9.436 20.0098 9.59637 20.238C9.75793 20.4418 9.97312 20.5503 10.2419 20.5633L21.1286 21.0924C21.3241 21.1019 21.4982 21.0491 21.6507 20.934C21.8289 20.7957 21.9472 20.63 22.0056 20.4369L22.8766 16.8785L19.6875 16.7235C19.2965 16.7045 18.9341 16.6012 18.6003 16.4135C18.2665 16.2258 17.984 15.9916 17.7527 15.7109C17.547 15.407 17.4042 15.0694 17.3242 14.6981C17.2455 14.3023 17.2523 13.9108 17.3446 13.5233L17.8475 11.4902L31.85 12.1707L29.4263 21.9733C29.216 22.7714 28.8866 23.5024 28.4379 24.1665C27.9904 24.8061 27.4615 25.356 26.8513 25.8163C26.2411 26.2765 25.5506 26.6226 24.78 26.8546C24.0339 27.0878 23.2576 27.1848 22.4511 27.1456L4.59986 26.2781C4.01337 26.2496 3.46948 26.1007 2.96817 25.8314C2.46687 25.5621 2.05525 25.2114 1.73332 24.7794C1.41258 24.3229 1.19196 23.8223 1.07146 23.2775C0.950963 22.7328 0.966058 22.1701 1.11674 21.5896L5.53269 4.05773C5.77806 3.04088 6.30718 2.23377 7.12004 1.6364C7.9329 1.03904 8.85251 0.765294 9.87886 0.815169L33.7417 1.97478L32.2417 7.89086L8.04898 6.71522L12.2753 8.20657ZM33.9719 27.7055L40.3505 2.29593L48.0482 2.67L46.5482 8.58608L42.0396 8.36698L46.2293 9.85655L41.6695 28.0795L33.9719 27.7055ZM81.5809 4.29951L67.0647 29.3136L54.2352 28.6902L50.7902 2.80325L58.9278 3.19869L61.6258 21.7744L57.2748 22.8489L61.8201 23.0698L72.6003 3.8631L81.5809 4.29951ZM88.1982 23.0656L86.3793 30.2522L78.6817 29.8781L84.1964 7.88038C84.4418 6.86352 84.9709 6.05641 85.7838 5.45905C86.6211 4.86287 87.5529 4.58972 88.5793 4.6396L106.357 5.50351C107.041 5.53676 107.657 5.71367 108.205 6.03422C108.779 6.33153 109.237 6.73346 109.58 7.24002C109.948 7.72332 110.203 8.27459 110.344 8.89383C110.486 9.51307 110.467 10.149 110.288 10.8017L105.184 31.166L97.486 30.7919L99.3049 23.6054L88.1982 23.0656ZM100.807 17.6526L102.132 12.3159C102.193 12.0495 102.144 11.8144 101.982 11.6106C101.822 11.3823 101.607 11.2617 101.338 11.2486L86.7494 10.5396L90.9391 12.0292L89.6633 17.1111L100.807 17.6526ZM136.302 32.6782L133.882 16.688L124.755 32.1171L110.863 31.442L116.801 6.01105L124.719 6.3958L120.595 25.485L116.024 26.5489L120.313 26.7573L132.014 6.75027L139.271 7.10297L142.966 27.8581L148.692 7.56075L156.573 7.94373L149.791 33.3337L136.302 32.6782ZM166.342 26.863L164.523 34.0496L156.825 33.6755L162.34 11.6777C162.585 10.6609 163.115 9.85378 163.927 9.25642C164.765 8.66024 165.697 8.38709 166.723 8.43697L184.501 9.30089C185.185 9.33414 185.801 9.51104 186.349 9.8316C186.922 10.1289 187.381 10.5308 187.723 11.0374C188.092 11.5207 188.347 12.072 188.488 12.6912C188.629 13.3104 188.611 13.9464 188.432 14.5991L183.327 34.9634L175.63 34.5893L177.449 27.4027L166.342 26.863ZM178.95 21.45L180.275 16.1133C180.337 15.8469 180.287 15.6117 180.126 15.4079C179.965 15.1797 179.751 15.059 179.482 15.046L164.893 14.337L169.083 15.8266L167.807 20.9085L178.95 21.45ZM220.252 11.0382L206.894 25.8208L204.489 35.9917L196.132 35.5856L198.254 26.6869L202.8 26.9078L198.573 25.4164L191.184 9.62565L199.322 10.0211L203.556 19.6696L211.271 10.6018L220.252 11.0382ZM217.777 30.9792L218.28 28.946L225.978 29.3201L225.797 30.0094C225.735 30.2759 225.785 30.5232 225.945 30.7514C226.107 30.9553 226.322 31.0637 226.591 31.0768L241.033 31.7786L236.807 30.2872L237.306 28.3274C237.368 28.061 237.318 27.8259 237.157 27.6221C236.996 27.3938 236.782 27.2732 236.513 27.2601L224.636 26.683C223.903 26.6473 223.227 26.4552 222.607 26.1067C221.987 25.7581 221.482 25.3172 221.091 24.7838C220.701 24.2504 220.424 23.6369 220.262 22.9431C220.124 22.2506 220.146 21.5413 220.329 20.8153L221.792 14.8975C222.065 13.8085 222.647 12.9305 223.537 12.2633C224.451 11.5974 225.47 11.2918 226.594 11.3464L243.529 12.1693C244.262 12.205 244.939 12.3971 245.559 12.7456C246.178 13.0942 246.684 13.5351 247.074 14.0685C247.465 14.6019 247.741 15.2154 247.903 15.9092C248.067 16.5785 248.057 17.2761 247.875 18.0021L247.334 20.0701L239.636 19.696L239.816 19.0067C239.878 18.7402 239.829 18.5051 239.667 18.3013C239.507 18.0731 239.292 17.9524 239.023 17.9394L224.434 17.2304L228.624 18.72L228.256 20.2453C228.194 20.5117 228.243 20.759 228.404 20.9873C228.565 21.1911 228.78 21.2995 229.049 21.3126L238.763 21.7846C239.496 21.8203 240.095 21.8493 240.559 21.8719L241.254 21.9424C241.96 22.0257 242.586 22.2521 243.131 22.6215C243.702 22.9677 244.171 23.4069 244.537 23.9391C244.903 24.4712 245.156 25.0714 245.295 25.7395C245.435 26.3832 245.414 27.0558 245.233 27.7573L243.639 34.1097C243.365 35.1987 242.771 36.0762 241.857 36.7421C240.968 37.4092 239.961 37.7154 238.836 37.6608L222.085 36.8468C221.352 36.8111 220.675 36.6191 220.055 36.2705C219.435 35.9219 218.93 35.481 218.54 34.9476C218.149 34.4142 217.873 33.8007 217.711 33.107C217.573 32.4144 217.595 31.7051 217.777 30.9792Z" fill="#D2D3D4"/>
</svg>
