<svg width="28" height="28" viewBox="0 0 28 28" fill="none" xmlns="http://www.w3.org/2000/svg">
<path d="M19.8453 0.0917969H7.30896C5.3701 0.0938695 3.51125 0.865005 2.14028 2.23598C0.769301 3.60695 -0.00183358 5.46581 -0.00390625 7.40466V19.941C-0.00183358 21.8798 0.769301 23.7387 2.14028 25.1096C3.51125 26.4806 5.3701 27.2519 7.30896 27.2539H19.8453C21.7841 27.2519 23.643 26.4806 25.0139 25.1096C26.3849 23.7387 27.1562 21.8798 27.1582 19.941V7.40466C27.1562 5.46581 26.3849 3.60695 25.0139 2.23598C23.643 0.865005 21.7841 0.0938695 19.8453 0.0917969ZM13.5771 19.941C12.3374 19.941 11.1255 19.5734 10.0947 18.8846C9.06393 18.1959 8.26052 17.2169 7.78609 16.0716C7.31167 14.9261 7.18754 13.6659 7.42941 12.45C7.67126 11.2341 8.26824 10.1172 9.14486 9.24057C10.0215 8.36394 11.1384 7.76696 12.3543 7.52511C13.5702 7.28324 14.8304 7.40737 15.9759 7.88179C17.1212 8.35622 18.1002 9.15963 18.7889 10.1904C19.4777 11.2212 19.8453 12.4331 19.8453 13.6728C19.8436 15.3346 19.1825 16.9281 18.0075 18.1032C16.8324 19.2782 15.2389 19.9393 13.5771 19.941ZM21.4123 7.40466C21.1024 7.40466 20.7994 7.31276 20.5418 7.14056C20.2841 6.96838 20.0832 6.72364 19.9646 6.43731C19.846 6.15096 19.8149 5.83588 19.8754 5.5319C19.9359 5.22793 20.0852 4.94871 20.3043 4.72956C20.5234 4.5104 20.8026 4.36116 21.1066 4.30068C21.4107 4.24022 21.7257 4.27126 22.0121 4.38986C22.2984 4.50847 22.5431 4.70931 22.7153 4.96701C22.8874 5.22471 22.9794 5.52769 22.9794 5.83762C22.9794 6.25322 22.8142 6.65181 22.5204 6.94568C22.2265 7.23956 21.8279 7.40466 21.4123 7.40466ZM17.7559 13.6728C17.7559 14.4994 17.5109 15.3072 17.0517 15.9944C16.5925 16.6815 15.9398 17.2173 15.1763 17.5335C14.4127 17.8498 13.5725 17.9325 12.7619 17.7714C11.9513 17.6101 11.2067 17.2121 10.6223 16.6277C10.0379 16.0432 9.63988 15.2987 9.47865 14.488C9.3174 13.6775 9.40015 12.8373 9.71644 12.0737C10.0327 11.3101 10.5683 10.6575 11.2555 10.1983C11.9427 9.73913 12.7506 9.49405 13.5771 9.49405C14.6853 9.49405 15.7483 9.93431 16.532 10.718C17.3156 11.5017 17.7559 12.5646 17.7559 13.6728Z" fill="#F7F5FF"/>
</svg>
