<svg width="112" height="80" viewBox="0 0 112 80" fill="none" xmlns="http://www.w3.org/2000/svg">
<path fill-rule="evenodd" clip-rule="evenodd" d="M74.2132 4.4602e-05L111.143 39.7462L74.2132 79.4924L63.7461 68.227L90.0647 39.7462L63.7461 11.2655L74.2132 4.4602e-05ZM92.4757 39.7462L66.1604 68.2235L74.2132 76.8905L108.725 39.7462L74.2132 2.60202L66.1604 11.269L92.4757 39.7462Z" fill="#FFCC2A"/>
<path fill-rule="evenodd" clip-rule="evenodd" d="M42.9475 4.4602e-05L79.877 39.7462L42.9475 79.4924L32.4805 68.227L58.799 39.7462L32.4805 11.2655L42.9475 4.4602e-05ZM61.21 39.7462L34.8948 68.2235L42.9475 76.8905L77.4594 39.7462L42.9475 2.60202L34.8948 11.269L61.21 39.7462Z" fill="#FFCC2A" fill-opacity="0.7"/>
<path fill-rule="evenodd" clip-rule="evenodd" d="M10.4671 4.4602e-05L47.3965 39.7462L10.4671 79.4924L1.1802e-05 68.227L26.3186 39.7462L1.36118e-05 11.2655L10.4671 4.4602e-05ZM28.7296 39.7462L2.4143 68.2235L10.4671 76.8905L44.9789 39.7462L10.4671 2.60202L2.4143 11.269L28.7296 39.7462Z" fill="#FFCC2A" fill-opacity="0.3"/>
</svg>
