<svg width="38" height="32" viewBox="0 0 38 32" fill="none" xmlns="http://www.w3.org/2000/svg">
<path fill-rule="evenodd" clip-rule="evenodd" d="M3.11644 14.1388C13.1738 9.75689 19.8805 6.86813 23.2361 5.47241C32.8171 1.48733 34.8079 0.795076 36.1055 0.772216C36.391 0.767191 37.0291 0.837917 37.4425 1.17332C37.7914 1.45653 37.8875 1.83911 37.9334 2.10762C37.9793 2.37614 38.0366 2.98782 37.9912 3.46578C37.4719 8.92109 35.2253 22.1595 34.0825 28.2696C33.5989 30.8548 32.6465 31.7217 31.7246 31.8066C29.7212 31.9909 28.1998 30.4825 26.2594 29.2105C23.2229 27.2202 21.5075 25.981 18.5602 24.0388C15.1538 21.7941 17.362 20.5605 19.3033 18.5442C19.8112 18.0165 28.6387 9.98744 28.8095 9.25904C28.8308 9.16784 28.8506 8.82839 28.6489 8.64899C28.4473 8.46974 28.1495 8.53109 27.9346 8.57984C27.6301 8.64899 22.7794 11.8551 13.3823 18.1983C12.0055 19.1439 10.7583 19.6045 9.64094 19.5804C8.40911 19.5537 6.03958 18.8838 4.27807 18.3112C2.1175 17.6089 0.400327 17.2375 0.549847 16.0449C0.627727 15.4236 1.48325 14.7882 3.11644 14.1388Z" fill="#1C1F25"/>
</svg>
