<svg width="27" height="22" viewBox="0 0 27 22" fill="none" xmlns="http://www.w3.org/2000/svg">
<path fill-rule="evenodd" clip-rule="evenodd" d="M1.91886 9.37593C8.92346 6.32407 13.5944 4.31215 15.9315 3.34009C22.6043 0.564624 23.9908 0.082497 24.8945 0.0665758C25.0933 0.0630761 25.5378 0.112334 25.8257 0.345927C26.0687 0.543176 26.1356 0.809626 26.1676 0.996636C26.1996 1.18365 26.2395 1.60966 26.2078 1.94254C25.8462 5.74196 24.2815 14.962 23.4856 19.2175C23.1488 21.018 22.4855 21.6217 21.8434 21.6809C20.4481 21.8093 19.3885 20.7587 18.0371 19.8728C15.9223 18.4866 14.7276 17.6236 12.6749 16.2709C10.3025 14.7075 11.8404 13.8484 13.1924 12.4441C13.5461 12.0766 19.6942 6.48464 19.8131 5.97733C19.828 5.91382 19.8418 5.6774 19.7013 5.55246C19.5609 5.42761 19.3535 5.47034 19.2038 5.5043C18.9917 5.55246 15.6134 7.78539 9.06867 12.2032C8.10973 12.8618 7.24115 13.1826 6.46293 13.1658C5.60501 13.1472 3.95472 12.6806 2.72789 12.2819C1.22313 11.7927 0.0271859 11.5341 0.131321 10.7034C0.185562 10.2707 0.781403 9.82818 1.91886 9.37593Z" fill="#F7F5FF"/>
</svg>
