<svg width="34" height="34" viewBox="0 0 34 34" fill="none" xmlns="http://www.w3.org/2000/svg">
<path d="M30.83 10.5978V15.8213C30.83 16.0983 30.7199 16.3641 30.524 16.56C30.3282 16.7558 30.0624 16.866 29.7853 16.866C27.603 16.8711 25.452 16.3463 23.5172 15.3368V20.5224C23.5172 23.1546 22.4715 25.6789 20.6103 27.5401C18.7491 29.4014 16.2248 30.447 13.5926 30.447C10.9604 30.447 8.43604 29.4014 6.57482 27.5401C4.71359 25.6789 3.66797 23.1546 3.66797 20.5224C3.66797 15.7037 7.18206 11.444 11.8427 10.6135C11.993 10.5867 12.1474 10.5933 12.295 10.6327C12.4426 10.6721 12.5796 10.7433 12.6966 10.8414C12.8136 10.9395 12.9078 11.0622 12.9723 11.2005C13.0369 11.3389 13.0703 11.4898 13.0702 11.6425V17.2173C13.0703 17.4149 13.0142 17.6086 12.9086 17.7758C12.803 17.9429 12.652 18.0767 12.4735 18.1614C12.0511 18.3616 11.6904 18.6715 11.4287 19.0588C11.167 19.4459 11.0139 19.8963 10.9856 20.3628C10.9573 20.8293 11.0547 21.2948 11.2675 21.7108C11.4804 22.1269 11.801 22.4783 12.1959 22.7282C12.5908 22.9781 13.0456 23.1174 13.5128 23.1317C13.9798 23.146 14.4422 23.0347 14.8517 22.8093C15.2612 22.5841 15.6027 22.253 15.8405 21.8507C16.0785 21.4485 16.2041 20.9898 16.2043 20.5224V3.28493C16.2043 3.00786 16.3144 2.74214 16.5103 2.54622C16.7062 2.3503 16.9719 2.24023 17.249 2.24023H22.4725C22.7495 2.24023 23.0153 2.3503 23.2112 2.54622C23.4071 2.74214 23.5172 3.00786 23.5172 3.28493C23.5189 4.94682 24.1798 6.54015 25.355 7.71528C26.5301 8.89042 28.1234 9.55137 29.7853 9.5531C30.0624 9.5531 30.3282 9.66317 30.524 9.85908C30.7199 10.055 30.83 10.3207 30.83 10.5978Z" fill="#F7F5FF"/>
</svg>
