<svg width="179" height="141" viewBox="0 0 179 141" fill="none" xmlns="http://www.w3.org/2000/svg">
<path d="M35.2693 106.375L26.685 112.563C26.3546 112.801 26.001 112.957 25.6243 113.031C25.2508 113.085 24.8889 113.068 24.5385 112.98C24.1914 112.872 23.8703 112.7 23.575 112.464C23.2713 112.217 23.0341 111.913 22.8635 111.552L17.7015 100.211L21.4184 97.5322L26.0528 107.693L24.4285 109.805L31.4021 104.779C31.4965 104.711 31.5579 104.622 31.5861 104.512C31.6177 104.381 31.6113 104.26 31.5668 104.149L26.7991 93.6539L30.516 90.9747L36.1055 103.244C36.3683 103.808 36.4156 104.384 36.2474 104.971C36.0909 105.55 35.7649 106.018 35.2693 106.375ZM51.2912 89.5016L42.2467 96.0208L44.0824 100.023L40.1531 102.855L33.7007 88.6793L46.1435 79.7106C46.4267 79.5065 46.7288 79.3784 47.0499 79.3263C47.3827 79.2657 47.7083 79.282 48.0266 79.3753C48.3363 79.4569 48.6202 79.6019 48.8781 79.8105C49.1478 80.0105 49.3552 80.2734 49.5003 80.5991L52.1274 86.3707C52.3817 86.9225 52.429 87.4981 52.2693 88.0973C52.1128 88.6763 51.7868 89.1444 51.2912 89.5016ZM40.7385 92.697L47.429 87.8746C47.5234 87.8066 47.5847 87.7176 47.613 87.6075C47.6412 87.4975 47.6332 87.3868 47.5887 87.2754L46.4032 84.6604C46.3332 84.5136 46.2229 84.4228 46.0723 84.3879C45.9131 84.3413 45.7687 84.3647 45.6389 84.4583L36.9307 90.735L39.448 89.8619L40.7385 92.697ZM56.3038 77.7124L59.1741 84.0079C59.2441 84.1547 59.3586 84.2515 59.5178 84.2981C59.6684 84.333 59.8086 84.3036 59.9384 84.2101L65.1952 80.4211C65.2896 80.353 65.3509 80.264 65.3792 80.154C65.4108 80.0236 65.4043 79.9027 65.3599 79.7913L64.4459 77.8144L62.9061 78.9243C62.7173 79.0604 62.5105 79.1467 62.2858 79.1831C62.061 79.2196 61.8429 79.2155 61.6313 79.1707C61.4231 79.1057 61.2316 79.0017 61.0568 78.8587C60.8735 78.7039 60.7315 78.5194 60.6308 78.3051L60.1111 77.1736L66.8723 72.3001L69.3788 77.7552C69.5769 78.2041 69.6947 78.666 69.7323 79.141C69.7613 79.6042 69.7193 80.0558 69.6062 80.496C69.4931 80.9361 69.3004 81.3529 69.0282 81.7463C68.7678 82.1313 68.4429 82.4641 68.0535 82.7448L59.4338 88.9577C59.1506 89.1619 58.8426 89.2942 58.5097 89.3548C58.1769 89.4155 57.8556 89.405 57.5458 89.3235C57.2275 89.2301 56.9394 89.0792 56.6815 88.8706C56.4236 88.6621 56.222 88.3949 56.0769 88.0692L51.6318 78.2828C51.369 77.7192 51.3158 77.1479 51.4723 76.569C51.6287 75.99 51.9548 75.5219 52.4503 75.1647L63.9728 66.8594L65.4682 70.1655L53.7865 78.5856L56.3038 77.7124ZM80.0463 68.7752L75.5153 72.0411L77.3333 76.0559L73.6164 78.7351L67.1639 64.5593L79.0935 55.9606C79.4238 55.7225 79.7758 55.5764 80.1492 55.5224C80.526 55.448 80.8879 55.4651 81.235 55.5735C81.5854 55.6616 81.9082 55.8234 82.2034 56.0588C82.4987 56.2943 82.7316 56.5926 82.9022 56.9537L85.3783 62.4038C85.6326 62.9556 85.6858 63.5269 85.5378 64.1177C85.3813 64.6966 85.0553 65.1647 84.5597 65.5219L83.7633 66.096L87.8645 68.4651L84.1476 71.1442L80.0463 68.7752ZM80.6798 63.9077C80.7742 63.8397 80.8356 63.7507 80.8638 63.6406C80.9039 63.5221 80.9017 63.4071 80.8573 63.2957L79.654 60.6935C79.5841 60.5467 79.4738 60.4559 79.3231 60.421C79.1758 60.3659 79.0372 60.3851 78.9074 60.4786L70.1992 66.7554L72.6989 65.895L73.9894 68.7301L80.6798 63.9077ZM92.2642 59.9687L94.0822 63.9835L90.3653 66.6626L84.7758 54.393C84.513 53.8294 84.4598 53.2581 84.6162 52.6791C84.7845 52.0916 85.1164 51.6193 85.612 51.2621L94.1963 45.0746C94.5267 44.8365 94.8786 44.6904 95.2521 44.6364C95.6288 44.562 95.9907 44.5791 96.3378 44.6875C96.6882 44.7756 97.011 44.9374 97.3063 45.1729C97.6015 45.4083 97.8285 45.7109 97.9874 46.0805L103.162 57.4388L99.4452 60.1179L97.6271 56.1031L92.2642 59.9687ZM96.119 52.7794L94.7569 49.8075C94.6869 49.6607 94.5766 49.5699 94.426 49.535C94.2668 49.4884 94.1224 49.5118 93.9926 49.6054L86.9481 54.6829L89.4478 53.8225L90.7383 56.6577L96.119 52.7794ZM117.32 47.2336L105.904 55.4623L99.4518 41.2865L111.381 32.6878C111.712 32.4497 112.064 32.3036 112.437 32.2496C112.814 32.1752 113.176 32.1923 113.523 32.3007C113.873 32.3888 114.196 32.5506 114.491 32.7861C114.787 33.0215 115.019 33.3198 115.19 33.6809L118.793 41.627C119.025 42.1231 119.161 42.6349 119.2 43.1623C119.24 43.6897 119.198 44.2039 119.075 44.7049C118.943 45.1941 118.732 45.66 118.442 46.1026C118.143 46.5334 117.769 46.9104 117.32 47.2336ZM114.963 44.0377L111.942 37.4207C111.872 37.2739 111.762 37.1831 111.611 37.1482C111.464 37.0931 111.325 37.1123 111.195 37.2058L102.611 43.3933L104.987 42.6222L108.126 49.4771L114.798 44.6675C114.893 44.5994 114.954 44.5104 114.983 44.4004C115.014 44.27 115.008 44.1492 114.963 44.0377ZM119.225 31.4179L121.743 30.5448L122.447 32.0813L129.066 27.3099L130.475 30.383L123.837 35.1671L124.613 36.8403C124.683 36.9871 124.797 37.0838 124.957 37.1305C125.107 37.1654 125.247 37.136 125.377 37.0425L132.705 31.7608L134.218 35.0541L125.173 41.5732C124.843 41.8114 124.489 41.9676 124.113 42.0419C123.739 42.096 123.377 42.0789 123.027 41.9908C122.68 41.8824 122.359 41.7104 122.063 41.475C121.76 41.2277 121.523 40.9235 121.352 40.5624L116.19 29.2218L127.765 20.8783L129.261 24.1843L119.225 31.4179Z" fill="#D2D3D4"/>
<path d="M131.346 92.6123L122.109 99.3294L112.24 95.6947L111.141 107.306L101.471 114.338L103.351 94.5464L108.691 90.6631L103.551 92.4702L86.8923 86.3261L96.1652 79.5827L104.49 82.6859L105.402 72.8656L115.108 65.8073L113.214 85.8843L131.346 92.6123ZM132.221 62.3539L134.038 66.2179L141.687 60.6553C142.337 60.183 143.043 59.89 143.806 59.7763C144.576 59.6211 145.319 59.632 146.036 59.8092C146.754 59.9863 147.415 60.3144 148.021 60.7933C148.609 61.2481 149.079 61.844 149.431 62.5809L153.432 71.4207C153.933 72.5644 154.026 73.7288 153.711 74.914C153.396 76.0991 152.734 77.059 151.723 77.7937L134.909 90.021L131.823 83.2739L143.838 74.5364C144.031 74.3964 144.155 74.2138 144.212 73.9886C144.276 73.7218 144.261 73.4748 144.17 73.2473L142.415 69.3932C142.271 69.0937 142.044 68.9089 141.736 68.8389C141.434 68.7274 141.151 68.7678 140.886 68.9602L129.196 77.4616L121.63 61.0645L141.799 46.397L144.885 53.1441L132.221 62.3539Z" fill="url(#paint0_linear_4134_3)"/>
<defs>
<linearGradient id="paint0_linear_4134_3" x1="105.315" y1="57.1384" x2="147.953" y2="115.77" gradientUnits="userSpaceOnUse">
<stop stop-color="#00E3FF"/>
<stop offset="1" stop-color="#86FFC6"/>
</linearGradient>
</defs>
</svg>
