<svg width="30" height="24" viewBox="0 0 30 24" fill="none" xmlns="http://www.w3.org/2000/svg">
<path d="M28.9719 4.03657C28.8489 3.55516 28.6132 3.1099 28.2841 2.73754C27.9551 2.36517 27.5423 2.07637 27.0798 1.89495C22.6033 0.165984 15.4785 0.181646 15.0867 0.181646C14.6949 0.181646 7.57008 0.165984 3.09357 1.89495C2.63098 2.07637 2.21816 2.36517 1.88916 2.73754C1.56016 3.1099 1.32441 3.55516 1.20137 4.03657C0.863153 5.33983 0.460938 7.72173 0.460938 11.6733C0.460938 15.6249 0.863153 18.0068 1.20137 19.3101C1.32422 19.7917 1.55989 20.2371 1.88891 20.6099C2.21791 20.9824 2.63083 21.2714 3.09357 21.453C7.38203 23.1074 14.0942 23.1649 15.0005 23.1649H15.1729C16.0792 23.1649 22.7952 23.1074 27.0798 21.453C27.5424 21.2714 27.9555 20.9824 28.2844 20.6099C28.6134 20.2371 28.8491 19.7917 28.9719 19.3101C29.3102 18.0041 29.7124 15.6249 29.7124 11.6733C29.7124 7.72173 29.3102 5.33983 28.9719 4.03657ZM19.5553 12.1082L13.2872 16.287C13.2085 16.3395 13.117 16.3696 13.0225 16.3741C12.9281 16.3788 12.8341 16.3575 12.7507 16.3129C12.6674 16.2683 12.5976 16.2017 12.5491 16.1207C12.5005 16.0394 12.4749 15.9467 12.4749 15.8521V7.49451C12.4749 7.39992 12.5005 7.3071 12.5491 7.22593C12.5976 7.14476 12.6674 7.07832 12.7507 7.03367C12.8341 6.98903 12.9281 6.96787 13.0225 6.97245C13.117 6.97701 13.2085 7.00716 13.2872 7.05967L19.5553 11.2384C19.627 11.2861 19.6858 11.3508 19.7264 11.4266C19.7671 11.5025 19.7883 11.5872 19.7883 11.6733C19.7883 11.7594 19.7671 11.8441 19.7264 11.92C19.6858 11.9959 19.627 12.0604 19.5553 12.1082Z" fill="#F7F5FF"/>
</svg>
